<svg width="145" height="146" viewBox="0 0 145 146" fill="none" xmlns="http://www.w3.org/2000/svg">
<path d="M139.699 35.6043H130.877V30.2675C130.874 27.9075 129.942 25.645 128.284 23.9762C126.627 22.3075 124.379 21.3689 122.035 21.3664H22.9834C21.8212 21.3652 20.67 21.5944 19.5957 22.041C18.5214 22.4877 17.5451 23.143 16.7223 23.9695C15.8996 24.7961 15.2466 25.7777 14.8007 26.8583C14.3548 27.9389 14.1246 29.0973 14.1234 30.2675V35.6043H5.30097C3.8942 35.6068 2.5459 36.1712 1.55205 37.1735C0.558191 38.1759 -2.21123e-06 39.5343 0 40.9506V62.3074C-2.21123e-06 63.7237 0.558191 65.0821 1.55205 66.0845C2.5459 67.0868 3.8942 67.6512 5.30097 67.6537H14.1234V126.425C14.1308 127.843 14.6956 129.201 15.6942 130.201C16.6928 131.201 18.0441 131.762 19.4526 131.762H22.9834V140.663C22.9934 142.075 23.5569 143.427 24.5515 144.422C25.546 145.418 26.8911 145.979 28.2938 145.981H38.9052C39.6049 145.986 40.2988 145.852 40.9468 145.586C41.5948 145.32 42.1843 144.928 42.6812 144.432C43.1782 143.936 43.573 143.346 43.8427 142.696C44.1125 142.046 44.252 141.349 44.2532 140.644V131.762H100.841V140.663C100.843 142.078 101.403 143.434 102.396 144.434C103.39 145.434 104.737 145.997 106.142 146H116.753C118.159 145.997 119.507 145.435 120.502 144.435C121.497 143.435 122.059 142.079 122.064 140.663V131.762H125.594C127.001 131.757 128.349 131.192 129.344 130.191C130.339 129.189 130.9 127.832 130.905 126.416V67.6443H139.746C141.143 67.6293 142.478 67.0607 143.461 66.0618C144.445 65.0628 144.998 63.7139 145 62.3074V40.9506C145 39.5343 144.442 38.1759 143.448 37.1735C142.454 36.1712 141.106 35.6068 139.699 35.6043ZM14.1234 64.0895H5.30097C4.83314 64.087 4.38532 63.8982 4.05539 63.5642C3.72546 63.2303 3.54025 62.7784 3.54026 62.3074V40.9506C3.54025 40.4796 3.72546 40.0277 4.05539 39.6938C4.38532 39.3599 4.83314 39.171 5.30097 39.1685H14.1234V64.0895ZM40.6753 140.644C40.6728 141.115 40.4852 141.566 40.1535 141.898C39.8218 142.23 39.373 142.417 38.9052 142.417H28.2938C27.826 142.417 27.3772 142.23 27.0455 141.898C26.7138 141.566 26.5262 141.115 26.5237 140.644V131.762H40.6471L40.6753 140.644ZM118.476 140.644C118.474 141.115 118.286 141.566 117.955 141.898C117.623 142.23 117.174 142.417 116.706 142.417H106.095C105.627 142.417 105.178 142.23 104.846 141.898C104.515 141.566 104.327 141.115 104.325 140.644V131.762H118.448L118.476 140.644ZM127.318 126.425C127.318 126.898 127.131 127.351 126.799 127.685C126.467 128.02 126.017 128.207 125.547 128.207H19.4526C18.9831 128.207 18.5329 128.02 18.2009 127.685C17.869 127.351 17.6825 126.898 17.6825 126.425V30.2675C17.6825 28.8512 18.2407 27.4927 19.2345 26.4904C20.2284 25.488 21.5767 24.9236 22.9834 24.9211H122.017C123.423 24.9236 124.772 25.488 125.765 26.4904C126.759 27.4927 127.318 28.8512 127.318 30.2675V126.425ZM141.441 62.3359C141.441 62.8069 141.256 63.2587 140.926 63.5927C140.596 63.9266 140.148 64.1155 139.68 64.118H130.877V39.1685H139.718C140.186 39.171 140.634 39.3599 140.963 39.6938C141.293 40.0277 141.479 40.4796 141.479 40.9506L141.441 62.3359Z" fill="#DFDFDF"/>
<path d="M118.476 28.4853H26.5237C25.1186 28.4879 23.7717 29.0509 22.7781 30.0512C21.7845 31.0515 21.2252 32.4075 21.2227 33.8222V72.9906C21.2227 73.4616 21.4079 73.9134 21.7379 74.2474C22.0678 74.5813 22.5156 74.7702 22.9834 74.7727H122.017C122.484 74.7702 122.932 74.5813 123.262 74.2474C123.592 73.9134 123.777 73.4616 123.777 72.9906V33.8222C123.775 32.4075 123.215 31.0515 122.222 30.0512C121.228 29.0509 119.881 28.4879 118.476 28.4853ZM120.246 71.2085H108.279L101.208 67.6537H114.936C115.406 67.6537 115.856 67.466 116.188 67.1318C116.52 66.7976 116.706 66.3443 116.706 65.8716C116.706 65.399 116.52 64.9457 116.188 64.6115C115.856 64.2773 115.406 64.0895 114.936 64.0895H79.5711C79.1016 64.0895 78.6514 64.2773 78.3194 64.6115C77.9875 64.9457 77.801 65.399 77.801 65.8716C77.801 66.3443 77.9875 66.7976 78.3194 67.1318C78.6514 67.466 79.1016 67.6537 79.5711 67.6537H93.3084L100.38 71.2085H58.7721L51.6916 67.6537H65.4289C65.8984 67.6537 66.3486 67.466 66.6806 67.1318C67.0125 66.7976 67.199 66.3443 67.199 65.8716C67.199 65.399 67.0125 64.9457 66.6806 64.6115C66.3486 64.2773 65.8984 64.0895 65.4289 64.0895H30.064C29.5945 64.0895 29.1443 64.2773 28.8123 64.6115C28.4803 64.9457 28.2938 65.399 28.2938 65.8716C28.2938 66.3443 28.4803 66.7976 28.8123 67.1318C29.1443 67.466 29.5945 67.6537 30.064 67.6537H43.7919L50.8442 71.2085H24.7536V33.8222C24.756 33.3503 24.9433 32.8985 25.2748 32.5648C25.6062 32.2311 26.055 32.0426 26.5237 32.0401H118.476C118.945 32.0426 119.394 32.2311 119.725 32.5648C120.057 32.8985 120.244 33.3503 120.246 33.8222V71.2085Z" fill="#DFDFDF"/>
<path d="M30.064 89.0106H114.936C115.179 89.0284 115.422 88.9957 115.652 88.9145C115.882 88.8332 116.092 88.7052 116.27 88.5384C116.448 88.3717 116.591 88.1697 116.688 87.9451C116.785 87.7205 116.835 87.4782 116.835 87.2332C116.835 86.9882 116.785 86.7459 116.688 86.5213C116.591 86.2967 116.448 86.0947 116.27 85.9279C116.092 85.7611 115.882 85.6331 115.652 85.5519C115.422 85.4707 115.179 85.438 114.936 85.4558H30.064C29.8213 85.438 29.5776 85.4707 29.348 85.5519C29.1184 85.6331 28.908 85.7611 28.7298 85.9279C28.5515 86.0947 28.4094 86.2967 28.3122 86.5213C28.215 86.7459 28.1648 86.9882 28.1648 87.2332C28.1648 87.4782 28.215 87.7205 28.3122 87.9451C28.4094 88.1697 28.5515 88.3717 28.7298 88.5384C28.908 88.7052 29.1184 88.8332 29.348 88.9145C29.5776 88.9957 29.8213 89.0284 30.064 89.0106Z" fill="#DFDFDF"/>
<path d="M30.064 96.1295H114.936C115.179 96.1474 115.422 96.1146 115.652 96.0334C115.882 95.9522 116.092 95.8242 116.27 95.6574C116.448 95.4906 116.591 95.2886 116.688 95.064C116.785 94.8394 116.835 94.5971 116.835 94.3521C116.835 94.1072 116.785 93.8648 116.688 93.6402C116.591 93.4157 116.448 93.2137 116.27 93.0469C116.092 92.8801 115.882 92.7521 115.652 92.6708C115.422 92.5896 115.179 92.5569 114.936 92.5748H30.064C29.8213 92.5569 29.5776 92.5896 29.348 92.6708C29.1184 92.7521 28.908 92.8801 28.7298 93.0469C28.5515 93.2137 28.4094 93.4157 28.3122 93.6402C28.215 93.8648 28.1648 94.1072 28.1648 94.3521C28.1648 94.5971 28.215 94.8394 28.3122 95.064C28.4094 95.2886 28.5515 95.4906 28.7298 95.6574C28.908 95.8242 29.1184 95.9522 29.348 96.0334C29.5776 96.1146 29.8213 96.1474 30.064 96.1295Z" fill="#DFDFDF"/>
<path d="M30.064 103.258H114.936C115.406 103.258 115.856 103.07 116.188 102.736C116.52 102.402 116.706 101.948 116.706 101.476C116.706 101.003 116.52 100.55 116.188 100.216C115.856 99.8815 115.406 99.6937 114.936 99.6937H30.064C29.5945 99.6937 29.1443 99.8815 28.8123 100.216C28.4803 100.55 28.2938 101.003 28.2938 101.476C28.2938 101.948 28.4803 102.402 28.8123 102.736C29.1443 103.07 29.5945 103.258 30.064 103.258Z" fill="#DFDFDF"/>
<path d="M129.088 19.7265C129.322 19.729 129.554 19.6848 129.771 19.5963C129.988 19.5079 130.185 19.377 130.352 19.2113C130.518 19.0455 130.65 18.8482 130.74 18.6308C130.83 18.4133 130.877 18.18 130.877 17.9444V1.82961C130.883 1.59002 130.841 1.3516 130.754 1.12862C130.667 0.905636 130.536 0.702675 130.369 0.531875C130.202 0.361076 130.002 0.225949 129.782 0.134579C129.562 0.0432086 129.326 -0.00252721 129.088 0.000107705H15.9123C15.6783 -0.00239903 15.4461 0.0418458 15.2292 0.130282C15.0122 0.218718 14.8148 0.34959 14.6485 0.515324C14.4821 0.681057 14.35 0.878363 14.2599 1.09582C14.1698 1.31328 14.1234 1.54658 14.1234 1.78221V17.9444C14.1234 18.417 14.3099 18.8703 14.6418 19.2045C14.9738 19.5387 15.424 19.7265 15.8935 19.7265C16.363 19.7265 16.8132 19.5387 17.1452 19.2045C17.4771 18.8703 17.6636 18.417 17.6636 17.9444V3.56432H127.318V17.9444C127.318 18.417 127.504 18.8703 127.836 19.2045C128.168 19.5387 128.618 19.7265 129.088 19.7265Z" fill="#DFDFDF"/>
<path d="M44.2532 106.813H22.9834C22.5156 106.815 22.0678 107.004 21.7379 107.338C21.4079 107.672 21.2227 108.124 21.2227 108.595V122.814C21.2227 123.046 21.2683 123.277 21.3568 123.492C21.4452 123.707 21.5749 123.902 21.7384 124.067C21.9019 124.232 22.096 124.362 22.3096 124.451C22.5233 124.54 22.7522 124.586 22.9834 124.586H44.2532C44.7211 124.586 45.1699 124.4 45.5016 124.068C45.8333 123.736 46.0209 123.285 46.0234 122.814V108.595C46.0234 108.122 45.8369 107.669 45.5049 107.335C45.173 107 44.7227 106.813 44.2532 106.813ZM42.4831 121.032H24.7536V110.377H42.436L42.4831 121.032Z" fill="#DFDFDF"/>
<path d="M122.017 106.813H100.794C100.324 106.813 99.8741 107 99.5422 107.335C99.2102 107.669 99.0237 108.122 99.0237 108.595V122.814C99.0262 123.285 99.2138 123.736 99.5455 124.068C99.8772 124.4 100.326 124.586 100.794 124.586H122.017C122.248 124.586 122.477 124.54 122.69 124.451C122.904 124.362 123.098 124.232 123.262 124.067C123.425 123.902 123.555 123.707 123.643 123.492C123.732 123.277 123.777 123.046 123.777 122.814V108.595C123.777 108.124 123.592 107.672 123.262 107.338C122.932 107.004 122.484 106.815 122.017 106.813ZM120.246 121.032H102.564V110.377H120.246V121.032Z" fill="#DFDFDF"/>
<path d="M90.1825 110.377H54.8175C54.3481 110.377 53.8978 110.565 53.5659 110.899C53.2339 111.233 53.0474 111.686 53.0474 112.159V119.278C53.0499 119.75 53.2372 120.202 53.5686 120.535C53.9 120.869 54.3488 121.058 54.8175 121.06H90.1825C90.6512 121.058 91.1 120.869 91.4314 120.535C91.7628 120.202 91.9501 119.75 91.9526 119.278V112.159C91.9526 111.686 91.7661 111.233 91.4341 110.899C91.1022 110.565 90.6519 110.377 90.1825 110.377ZM88.4123 117.543H56.5877V113.941H88.4123V117.543Z" fill="#DFDFDF"/>
</svg>
