<svg width="173" height="172" viewBox="0 0 173 172" fill="none" xmlns="http://www.w3.org/2000/svg">
<path d="M53.3491 116.165C53.5219 116.696 53.8995 117.136 54.3988 117.389C54.8981 117.643 55.4782 117.689 56.0115 117.517C56.5448 117.345 56.9876 116.97 57.2425 116.473C57.4974 115.977 57.5436 115.4 57.3708 114.87C54.5621 106.201 53.0481 97.1686 52.8773 88.0623H84.3879V98.8858C84.3879 99.4428 84.6104 99.9769 85.0065 100.371C85.4026 100.765 85.9398 100.986 86.4999 100.986C87.06 100.986 87.5972 100.765 87.9932 100.371C88.3893 99.9769 88.6118 99.4428 88.6118 98.8858V88.107H107.338C107.899 88.107 108.436 87.8858 108.832 87.492C109.228 87.0982 109.45 86.564 109.45 86.0071C109.45 85.4502 109.228 84.9161 108.832 84.5222C108.436 84.1284 107.899 83.9072 107.338 83.9072H88.6118V56.4296C97.2151 56.2465 105.758 54.9473 114.023 52.5649C116.9 60.2155 118.787 68.1989 119.639 76.3229C119.664 76.6011 119.746 76.8714 119.878 77.1175C120.011 77.3636 120.193 77.5804 120.412 77.7548C120.632 77.9291 120.884 78.0574 121.155 78.1319C121.426 78.2064 121.709 78.2256 121.987 78.1883C122.544 78.1319 123.056 77.8578 123.41 77.4263C123.764 76.9948 123.931 76.4413 123.875 75.8873C122.977 67.4862 121.022 59.2305 118.055 51.3139C126.94 48.3368 135.352 44.117 143.039 38.7814C146.194 42.5198 148.968 46.5608 151.319 50.8447C151.594 51.32 152.045 51.6694 152.576 51.818C153.107 51.9667 153.676 51.9029 154.16 51.6402C154.644 51.3776 155.006 50.9369 155.168 50.4125C155.33 49.8882 155.279 49.3217 155.026 48.8342C149.969 39.6118 143.082 31.5062 134.782 25.0084C126.482 18.5107 116.942 13.7561 106.739 11.0327C96.5366 8.30938 85.884 7.67399 75.4271 9.16505C64.9701 10.6561 54.9265 14.2426 45.9047 19.7071C36.8829 25.1717 29.0709 32.4006 22.9419 40.9558C16.813 49.511 12.4947 59.2144 10.2487 69.478C8.00273 79.7416 7.87585 90.3518 9.87574 100.666C11.8756 110.979 15.9607 120.782 21.8833 129.48C22.039 129.707 22.2381 129.902 22.4694 130.053C22.7007 130.203 22.9596 130.308 23.2314 130.359C23.5031 130.41 23.7824 130.408 24.0532 130.352C24.324 130.296 24.5811 130.187 24.8097 130.033C25.0384 129.878 25.2342 129.68 25.3859 129.45C25.5376 129.22 25.6422 128.963 25.6938 128.692C25.7455 128.422 25.7431 128.144 25.6868 127.875C25.6305 127.606 25.5214 127.35 25.3658 127.123C17.4701 115.593 13.0718 102.051 12.6941 88.107H48.6421C48.8251 97.6382 50.4109 107.091 53.3491 116.165ZM140.197 35.6315C132.885 40.6484 124.898 44.6155 116.472 47.4156C110.774 34.1962 102.235 22.3774 91.454 12.7894C110.018 14.0176 127.429 22.1768 140.197 35.6315ZM88.6118 15.8499C98.8774 24.9149 107.005 36.1201 112.416 48.6666C104.666 50.8553 96.6666 52.0526 88.6118 52.2298V15.8499ZM84.3879 83.9072H52.8773C53.1204 73.1917 55.1867 62.5944 58.9884 52.5649C67.2506 54.9427 75.7887 56.2419 84.3879 56.4296V83.9072ZM84.3879 52.2298C76.3331 52.0526 68.3339 50.8553 60.5836 48.6666C66.0006 36.1236 74.1276 24.9196 84.3879 15.8499V52.2298ZM81.5233 12.767C70.7172 22.3278 62.1802 34.1543 56.5282 47.3933C48.1158 44.6054 40.1401 40.6535 32.8363 35.6539C45.5788 22.189 62.971 14.0133 81.5233 12.767ZM29.9941 38.8037C37.6766 44.1283 46.0811 48.3404 54.9555 51.3139C51.0217 61.7473 48.891 72.7672 48.6534 83.9072H12.7054C13.1664 67.3601 19.2617 51.4584 29.9941 38.8037Z" fill="#DFDFDF"/>
<path d="M153.588 31.7444C143.174 19.2343 121.437 0 86.5001 0C63.5662 0.0236548 41.5784 9.09269 25.3617 25.217C9.14496 41.3414 0.0239711 63.2039 0.000180759 86.0071C-0.0242698 97.8338 2.43204 109.536 7.21225 120.365C0.696673 128.285 -1.3591 133.97 0.977517 137.701C5.47102 144.883 22.4677 139.767 29.4438 137.511C29.9742 137.332 30.4112 136.95 30.6587 136.451C30.9063 135.951 30.9441 135.374 30.7638 134.847C30.5836 134.32 30.2 133.885 29.6976 133.639C29.1951 133.393 28.6149 133.355 28.0846 133.534C17.772 137.165 6.49329 138.572 4.56108 135.5C4.12297 134.83 3.37031 132.149 9.21185 124.599C10.4251 126.967 11.7732 129.346 13.3009 131.736C13.628 132.155 14.1063 132.432 14.6346 132.507C15.1628 132.582 15.6998 132.45 16.1318 132.138C16.5887 131.777 16.8864 131.254 16.9619 130.678C17.0374 130.103 16.8847 129.521 16.5363 129.055C6.42589 112.122 4.17914 97.78 4.17914 86.0071C4.14627 68.0582 10.052 50.5969 20.9858 36.3149C31.9196 22.033 47.2744 11.7234 64.6832 6.9756C82.092 2.22778 100.588 3.30531 117.32 10.0421C134.052 16.7788 148.091 28.8008 157.273 44.2546C157.555 44.7323 158.013 45.0814 158.551 45.2275C159.088 45.3736 159.661 45.305 160.149 45.0364C160.625 44.7501 160.973 44.2921 161.12 43.7576C161.266 43.2231 161.2 42.6531 160.935 42.1658C159.636 39.8292 158.168 37.5893 156.542 35.464C165.878 33.822 168.001 35.7879 168.462 36.5809C168.922 37.374 169.843 40.535 161.721 50.0517C149.724 64.0474 124.403 83.5609 95.6443 100.885C81.1706 109.751 66.1642 117.726 50.7093 124.766C48.4626 125.794 46.2832 126.721 44.1376 127.626L46.8561 121.75C46.9736 121.5 47.0404 121.23 47.0525 120.954C47.0647 120.678 47.0221 120.403 46.9272 120.143C46.8323 119.884 46.6868 119.646 46.4992 119.442C46.3116 119.239 46.0855 119.074 45.8339 118.958C45.326 118.734 44.7507 118.715 44.229 118.905C43.7074 119.095 43.28 119.478 43.0367 119.974L37.9927 130.686C37.8755 130.935 37.8089 131.205 37.7969 131.48C37.7848 131.755 37.8275 132.03 37.9225 132.288C38.0175 132.546 38.1629 132.784 38.3504 132.986C38.5379 133.188 38.7637 133.352 39.015 133.467L49.8219 138.505C50.0723 138.628 50.3452 138.699 50.6241 138.715C50.903 138.73 51.1821 138.689 51.4446 138.594C51.7071 138.499 51.9475 138.352 52.1513 138.162C52.3551 137.972 52.518 137.743 52.6303 137.488C52.7475 137.239 52.8141 136.969 52.8261 136.695C52.8382 136.42 52.7955 136.145 52.7005 135.887C52.6055 135.628 52.4601 135.391 52.2726 135.189C52.0851 134.986 51.8593 134.823 51.608 134.707L45.1261 131.691C47.5077 130.708 49.923 129.692 52.4281 128.542C68.0351 121.428 83.1913 113.374 97.8124 104.426C127.357 86.5544 152.442 67.2531 164.9 52.7212C172.135 44.2546 174.46 38.2006 172.023 34.3358C169.585 30.4711 163.653 29.6557 153.588 31.7444Z" fill="#DFDFDF"/>
<path d="M86.4999 163.626C107.197 163.605 127.041 155.421 141.676 140.869C156.311 126.317 164.542 106.586 164.563 86.0071C164.569 79.345 163.724 72.7091 162.047 66.259C161.907 65.7311 161.562 65.2797 161.089 65.0034C160.615 64.7272 160.051 64.6485 159.519 64.7846C158.981 64.9289 158.521 65.2781 158.239 65.7567C157.958 66.2354 157.877 66.805 158.014 67.3425C159.421 72.7653 160.197 78.3307 160.328 83.9295H136.85C136.289 83.9295 135.752 84.1508 135.356 84.5446C134.96 84.9384 134.738 85.4725 134.738 86.0294C134.738 86.5864 134.96 87.1205 135.356 87.5143C135.752 87.9081 136.289 88.1294 136.85 88.1294H160.339C159.885 104.692 153.78 120.608 143.028 133.266C135.219 128.197 126.759 124.196 117.876 121.371C120.902 113.501 122.911 105.282 123.852 96.9088C123.903 96.6232 123.894 96.3303 123.826 96.0483C123.758 95.7662 123.633 95.5011 123.457 95.2695C123.282 95.0379 123.06 94.8448 122.806 94.7021C122.552 94.5594 122.271 94.4703 121.981 94.4403C121.691 94.4103 121.398 94.4401 121.12 94.5277C120.842 94.6154 120.585 94.7591 120.365 94.9498C120.145 95.1405 119.968 95.3742 119.843 95.6363C119.718 95.8984 119.649 96.1833 119.639 96.4732C118.742 104.576 116.79 112.528 113.832 120.131C104.951 117.549 95.7518 116.215 86.4999 116.165C85.9398 116.165 85.4026 116.387 85.0065 116.78C84.6104 117.174 84.3879 117.708 84.3879 118.265V156.243C76.0353 148.793 69.0687 139.937 63.8077 130.083C63.6838 129.829 63.5098 129.603 63.296 129.418C63.0822 129.232 62.8331 129.092 62.5635 129.004C62.2939 128.917 62.0093 128.884 61.7267 128.908C61.4442 128.932 61.1694 129.013 60.9188 129.145C60.6682 129.277 60.447 129.458 60.2682 129.677C60.0895 129.896 59.9569 130.149 59.8785 130.419C59.8 130.69 59.7773 130.974 59.8115 131.254C59.8458 131.534 59.9365 131.804 60.0781 132.049C65.5597 142.291 72.8112 151.493 81.5009 159.236C64.9889 158.158 49.3298 151.556 37.0714 140.504C36.6548 140.145 36.1136 139.963 35.5633 139.995C35.013 140.027 34.4972 140.272 34.1262 140.678C33.7552 141.083 33.5582 141.617 33.5775 142.165C33.5967 142.712 33.8306 143.231 34.2292 143.61C48.5396 156.518 67.1779 163.656 86.4999 163.626ZM116.179 125.28C124.612 127.966 132.662 131.72 140.13 136.45C127.394 149.9 110.014 158.064 91.4764 159.303C102.106 149.888 110.537 138.276 116.179 125.28ZM88.6118 120.354C96.5659 120.61 104.457 121.852 112.102 124.051C106.694 136.319 98.6811 147.278 88.6118 156.176V120.354Z" fill="#DFDFDF"/>
<path d="M166.091 58.0827C165.827 58.1673 165.583 58.3033 165.372 58.4827C165.162 58.6621 164.989 58.8815 164.865 59.1278C164.74 59.3742 164.666 59.6428 164.647 59.9178C164.628 60.1929 164.665 60.469 164.754 60.73C167.437 68.8896 168.795 77.4224 168.776 86.0071C168.775 102.226 163.925 118.078 154.843 131.55C145.761 145.023 132.856 155.507 117.768 161.67C102.68 167.834 86.0903 169.4 70.1057 166.168C54.1211 162.936 39.4633 155.053 27.9945 143.52C27.5945 143.158 27.07 142.963 26.5293 142.974C25.9885 142.985 25.4726 143.202 25.088 143.58C24.7034 143.958 24.4793 144.468 24.462 145.006C24.4447 145.544 24.6355 146.067 24.9951 146.469C37.0527 158.592 52.4622 166.879 69.2664 170.276C86.0705 173.673 103.511 172.027 119.372 165.547C135.234 159.068 148.8 148.047 158.349 133.884C167.897 119.722 172.997 103.057 173 86.0071C173.023 76.977 171.589 68.0018 168.753 59.4231C168.668 59.1605 168.531 58.9174 168.351 58.7076C168.171 58.4979 167.951 58.3258 167.703 58.2011C167.456 58.0765 167.186 58.0019 166.909 57.9816C166.632 57.9612 166.354 57.9956 166.091 58.0827Z" fill="#DFDFDF"/>
</svg>
