<svg width="84" height="272" viewBox="0 0 84 272" fill="none" xmlns="http://www.w3.org/2000/svg">
<mask id="path-1-outside-1_299_303" maskUnits="userSpaceOnUse" x="18.7987" y="64.4116" width="53" height="205" fill="black">
<rect fill="white" x="18.7987" y="64.4116" width="53" height="205"/>
<path d="M19.8406 260.514L59.7987 260.514L59.7987 267.919L19.8406 267.919L19.8406 260.514ZM45.017 245.204C51.1458 245.204 54.2102 242.828 54.2102 238.078C54.2102 233.328 51.1458 230.953 45.017 230.953C39.0372 230.953 36.0474 233.328 36.0474 238.078C36.0474 242.828 39.0372 245.204 45.017 245.204ZM45.1288 252.608C35.2929 252.608 30.375 247.765 30.375 238.078C30.375 228.391 35.2929 223.548 45.1288 223.548C54.946 223.548 59.8546 228.391 59.8546 238.078C59.8546 247.728 54.946 252.571 45.1288 252.608ZM37.1092 196.893C36.6621 198.104 36.4386 199.827 36.4386 202.062C36.4386 207.185 39.2608 209.746 44.9052 209.746C50.3634 209.746 53.0924 207.539 53.0924 203.124C53.0924 201 52.5895 198.923 51.5835 196.893L37.1092 196.893ZM57.5633 189.488C66.1324 189.488 70.4169 194.639 70.4169 204.94C70.4169 208.554 69.9512 211.758 69.0198 214.553L63.1518 214.553C64.0833 211.702 64.549 208.48 64.549 204.884C64.549 199.557 62.3136 196.893 57.8427 196.893C58.7741 199.091 59.2399 201.457 59.2399 203.99C59.2399 212.708 54.4803 217.067 44.9611 217.067C35.2929 217.067 30.4588 211.991 30.4588 201.839C30.4588 198.43 30.8593 194.313 31.6604 189.488L57.5633 189.488ZM19.8406 172.78L25.7086 172.78L25.7086 180.185L19.8406 180.185L19.8406 172.78ZM30.4588 172.78L59.7987 172.78L59.7987 180.185L30.4588 180.185L30.4588 172.78ZM58.4016 163.478L52.2542 163.478C53.5582 160.218 54.2102 156.455 54.2102 152.189C54.2102 149.003 53.1856 147.411 51.1365 147.411C49.1805 147.411 48.2025 148.482 48.2025 150.624L48.2025 155.933C48.2025 161.894 45.2685 164.875 39.4005 164.875C33.2531 164.875 30.1794 160.525 30.1794 151.826C30.1794 148.137 30.7383 144.663 31.856 141.403L38.0034 141.403C36.6994 144.663 36.0474 148.202 36.0474 152.021C36.0474 156.026 37.0719 158.029 39.1211 158.029C41.0771 158.029 42.0551 156.865 42.0551 154.536L42.0551 149.786C42.0551 143.266 44.9891 140.006 50.857 140.006C57.0044 140.006 60.0781 144.16 60.0781 152.468C60.0781 156.548 59.5193 160.218 58.4016 163.478ZM25.7086 132.939L25.7086 127.462L30.4588 126.344L30.4588 118.967L36.3268 118.967L36.3268 125.534L49.8231 125.534C52.5615 125.534 53.9307 124.351 53.9307 121.985L53.9307 118.967L59.7987 118.967L59.7987 125.562C59.7987 130.48 57.1628 132.939 51.8909 132.939L25.7086 132.939ZM59.7987 111.62L30.4588 111.62L30.4588 105.892L34.2032 104.97C31.7069 102.399 30.4588 99.6796 30.4588 96.8108L36.4386 96.8108C36.4386 99.5678 37.5842 102.036 39.8755 104.216L59.7987 104.216L59.7987 111.62ZM50.6614 91.7275C44.8307 91.7275 41.9154 87.4802 41.9154 78.9856C41.9154 76.9924 42.1016 74.9991 42.4742 73.0059L40.2667 73.0059C37.6401 73.0059 36.3268 74.8966 36.3268 78.6782C36.3268 81.8823 36.7925 85.4404 37.7239 89.3524L31.856 89.3524C30.9245 85.4404 30.4588 81.8823 30.4588 78.6782C30.4588 69.9601 33.6816 65.601 40.127 65.601L59.7987 65.601L59.7987 69.9042L57.1721 72.5308C58.9232 75.0829 59.7987 77.8958 59.7987 80.9695C59.7987 88.1415 56.7529 91.7275 50.6614 91.7275ZM47.5039 73.0059C47.1313 74.8687 46.945 76.862 46.945 78.9856C46.945 82.5436 48.1559 84.3227 50.5776 84.3227C53.1856 84.3227 54.4896 82.8324 54.4896 79.8518C54.4896 77.3929 53.7258 75.1109 52.1983 73.0059L47.5039 73.0059Z"/>
</mask>
<path d="M19.8406 260.514L59.7987 260.514L59.7987 267.919L19.8406 267.919L19.8406 260.514ZM45.017 245.204C51.1458 245.204 54.2102 242.828 54.2102 238.078C54.2102 233.328 51.1458 230.953 45.017 230.953C39.0372 230.953 36.0474 233.328 36.0474 238.078C36.0474 242.828 39.0372 245.204 45.017 245.204ZM45.1288 252.608C35.2929 252.608 30.375 247.765 30.375 238.078C30.375 228.391 35.2929 223.548 45.1288 223.548C54.946 223.548 59.8546 228.391 59.8546 238.078C59.8546 247.728 54.946 252.571 45.1288 252.608ZM37.1092 196.893C36.6621 198.104 36.4386 199.827 36.4386 202.062C36.4386 207.185 39.2608 209.746 44.9052 209.746C50.3634 209.746 53.0924 207.539 53.0924 203.124C53.0924 201 52.5895 198.923 51.5835 196.893L37.1092 196.893ZM57.5633 189.488C66.1324 189.488 70.4169 194.639 70.4169 204.94C70.4169 208.554 69.9512 211.758 69.0198 214.553L63.1518 214.553C64.0833 211.702 64.549 208.48 64.549 204.884C64.549 199.557 62.3136 196.893 57.8427 196.893C58.7741 199.091 59.2399 201.457 59.2399 203.99C59.2399 212.708 54.4803 217.067 44.9611 217.067C35.2929 217.067 30.4588 211.991 30.4588 201.839C30.4588 198.43 30.8593 194.313 31.6604 189.488L57.5633 189.488ZM19.8406 172.78L25.7086 172.78L25.7086 180.185L19.8406 180.185L19.8406 172.78ZM30.4588 172.78L59.7987 172.78L59.7987 180.185L30.4588 180.185L30.4588 172.78ZM58.4016 163.478L52.2542 163.478C53.5582 160.218 54.2102 156.455 54.2102 152.189C54.2102 149.003 53.1856 147.411 51.1365 147.411C49.1805 147.411 48.2025 148.482 48.2025 150.624L48.2025 155.933C48.2025 161.894 45.2685 164.875 39.4005 164.875C33.2531 164.875 30.1794 160.525 30.1794 151.826C30.1794 148.137 30.7383 144.663 31.856 141.403L38.0034 141.403C36.6994 144.663 36.0474 148.202 36.0474 152.021C36.0474 156.026 37.0719 158.029 39.1211 158.029C41.0771 158.029 42.0551 156.865 42.0551 154.536L42.0551 149.786C42.0551 143.266 44.9891 140.006 50.857 140.006C57.0044 140.006 60.0781 144.16 60.0781 152.468C60.0781 156.548 59.5193 160.218 58.4016 163.478ZM25.7086 132.939L25.7086 127.462L30.4588 126.344L30.4588 118.967L36.3268 118.967L36.3268 125.534L49.8231 125.534C52.5615 125.534 53.9307 124.351 53.9307 121.985L53.9307 118.967L59.7987 118.967L59.7987 125.562C59.7987 130.48 57.1628 132.939 51.8909 132.939L25.7086 132.939ZM59.7987 111.62L30.4588 111.62L30.4588 105.892L34.2032 104.97C31.7069 102.399 30.4588 99.6796 30.4588 96.8108L36.4386 96.8108C36.4386 99.5678 37.5842 102.036 39.8755 104.216L59.7987 104.216L59.7987 111.62ZM50.6614 91.7275C44.8307 91.7275 41.9154 87.4802 41.9154 78.9856C41.9154 76.9924 42.1016 74.9991 42.4742 73.0059L40.2667 73.0059C37.6401 73.0059 36.3268 74.8966 36.3268 78.6782C36.3268 81.8823 36.7925 85.4404 37.7239 89.3524L31.856 89.3524C30.9245 85.4404 30.4588 81.8823 30.4588 78.6782C30.4588 69.9601 33.6816 65.601 40.127 65.601L59.7987 65.601L59.7987 69.9042L57.1721 72.5308C58.9232 75.0829 59.7987 77.8958 59.7987 80.9695C59.7987 88.1415 56.7529 91.7275 50.6614 91.7275ZM47.5039 73.0059C47.1313 74.8687 46.945 76.862 46.945 78.9856C46.945 82.5436 48.1559 84.3227 50.5776 84.3227C53.1856 84.3227 54.4896 82.8324 54.4896 79.8518C54.4896 77.3929 53.7258 75.1109 52.1983 73.0059L47.5039 73.0059Z" fill="#DEDEDE"/>
<path d="M19.8406 260.514L19.8406 259.854L19.1803 259.854L19.1803 260.514L19.8406 260.514ZM59.7987 260.514L60.459 260.514L60.459 259.854L59.7987 259.854L59.7987 260.514ZM59.7987 267.919L59.7987 268.579L60.459 268.579L60.459 267.919L59.7987 267.919ZM19.8406 267.919L19.1803 267.919L19.1803 268.579L19.8406 268.579L19.8406 267.919ZM19.8406 261.174L59.7987 261.174L59.7987 259.854L19.8406 259.854L19.8406 261.174ZM59.1384 260.514L59.1384 267.919L60.459 267.919L60.459 260.514L59.1384 260.514ZM59.7987 267.258L19.8406 267.258L19.8406 268.579L59.7987 268.579L59.7987 267.258ZM20.5009 267.919L20.5009 260.514L19.1803 260.514L19.1803 267.919L20.5009 267.919ZM45.1288 252.608L45.1288 253.269L45.1313 253.269L45.1288 252.608ZM45.017 245.864C48.1484 245.864 50.6183 245.26 52.3164 243.944C54.0464 242.603 54.8705 240.606 54.8705 238.078L53.5498 238.078C53.5498 240.3 52.8417 241.866 51.5074 242.9C50.141 243.959 48.0144 244.543 45.017 244.543L45.017 245.864ZM54.8705 238.078C54.8705 235.55 54.0464 233.553 52.3164 232.212C50.6183 230.896 48.1484 230.292 45.017 230.292L45.017 231.613C48.0144 231.613 50.141 232.197 51.5074 233.256C52.8417 234.29 53.5498 235.856 53.5498 238.078L54.8705 238.078ZM45.017 230.292C41.9574 230.292 39.5406 230.897 37.8791 232.217C36.1885 233.56 35.3871 235.556 35.3871 238.078L36.7077 238.078C36.7077 235.85 37.4012 234.283 38.7005 233.251C40.0288 232.196 42.0969 231.613 45.017 231.613L45.017 230.292ZM35.3871 238.078C35.3871 240.601 36.1885 242.596 37.8791 243.939C39.5406 245.259 41.9574 245.864 45.017 245.864L45.017 244.543C42.0969 244.543 40.0288 243.96 38.7005 242.905C37.4012 241.873 36.7077 240.306 36.7077 238.078L35.3871 238.078ZM45.1288 251.948C40.3101 251.948 36.8179 250.762 34.5268 248.505C32.2375 246.251 31.0353 242.817 31.0353 238.078L29.7147 238.078C29.7147 243.026 30.9715 246.857 33.6001 249.446C36.2269 252.033 40.1116 253.269 45.1288 253.269L45.1288 251.948ZM31.0353 238.078C31.0353 233.339 32.2375 229.906 34.5268 227.651C36.8179 225.395 40.3101 224.208 45.1288 224.208L45.1288 222.888C40.1116 222.888 36.2269 224.123 33.6001 226.71C30.9715 229.299 29.7147 233.13 29.7147 238.078L31.0353 238.078ZM45.1288 224.208C49.9378 224.208 53.4229 225.394 55.7094 227.651C57.9942 229.905 59.1943 233.339 59.1943 238.078L60.5149 238.078C60.5149 233.131 59.2606 229.299 56.6369 226.71C54.0148 224.123 50.137 222.888 45.1288 222.888L45.1288 224.208ZM59.1943 238.078C59.1943 242.798 57.9947 246.223 55.7094 248.478C53.422 250.735 49.9357 251.93 45.1263 251.948L45.1313 253.269C50.139 253.25 54.0157 252.004 56.6369 249.418C59.2602 246.829 60.5149 243.008 60.5149 238.078L59.1943 238.078ZM37.1092 196.893L37.1092 196.232L36.6491 196.232L36.4898 196.664L37.1092 196.893ZM51.5835 196.893L52.1752 196.6L51.9933 196.232L51.5835 196.232L51.5835 196.893ZM69.0198 214.553L69.0198 215.213L69.4957 215.213L69.6462 214.761L69.0198 214.553ZM63.1518 214.553L62.5242 214.347L62.2414 215.213L63.1518 215.213L63.1518 214.553ZM57.8427 196.893L57.8427 196.232L56.8458 196.232L57.2347 197.15L57.8427 196.893ZM31.6604 189.488L31.6604 188.828L31.1006 188.828L31.009 189.38L31.6604 189.488ZM36.4898 196.664C36.0028 197.983 35.7783 199.797 35.7783 202.062L37.0989 202.062C37.0989 199.856 37.3214 198.224 37.7286 197.122L36.4898 196.664ZM35.7783 202.062C35.7783 204.743 36.5196 206.87 38.1115 208.314C39.6912 209.748 41.9962 210.407 44.9052 210.407L44.9052 209.086C42.1698 209.086 40.2415 208.464 38.999 207.336C37.7687 206.22 37.0989 204.504 37.0989 202.062L35.7783 202.062ZM44.9052 210.407C47.7061 210.407 49.9292 209.843 51.4609 208.604C53.0194 207.344 53.7528 205.475 53.7528 203.124L52.4321 203.124C52.4321 205.188 51.801 206.631 50.6304 207.577C49.433 208.546 47.5625 209.086 44.9052 209.086L44.9052 210.407ZM53.7528 203.124C53.7528 200.892 53.2232 198.715 52.1752 196.6L50.9919 197.186C51.9558 199.132 52.4321 201.109 52.4321 203.124L53.7528 203.124ZM51.5835 196.232L37.1092 196.232L37.1092 197.553L51.5835 197.553L51.5835 196.232ZM57.5633 190.148C61.7108 190.148 64.7125 191.389 66.6959 193.773C68.6986 196.181 69.7566 199.865 69.7566 204.94L71.0773 204.94C71.0773 199.714 69.993 195.672 67.7112 192.929C65.41 190.162 61.9849 188.828 57.5633 188.828L57.5633 190.148ZM69.7566 204.94C69.7566 208.499 69.2979 211.63 68.3934 214.344L69.6462 214.761C70.6045 211.887 71.0773 208.61 71.0773 204.94L69.7566 204.94ZM69.0198 213.892L63.1518 213.892L63.1518 215.213L69.0198 215.213L69.0198 213.892ZM63.7795 214.758C64.7364 211.83 65.2093 208.536 65.2093 204.884L63.8887 204.884C63.8887 208.423 63.4302 211.575 62.5242 214.347L63.7795 214.758ZM65.2093 204.884C65.2093 202.144 64.6368 199.966 63.3782 198.466C62.101 196.944 60.2133 196.232 57.8427 196.232L57.8427 197.553C59.943 197.553 61.4084 198.173 62.3666 199.315C63.3434 200.479 63.8887 202.297 63.8887 204.884L65.2093 204.884ZM57.2347 197.15C58.1295 199.262 58.5795 201.54 58.5795 203.99L59.9002 203.99C59.9002 201.374 59.4187 198.92 58.4507 196.635L57.2347 197.15ZM58.5795 203.99C58.5795 208.232 57.4244 211.296 55.2242 213.311C53.013 215.336 49.6326 216.407 44.9611 216.407L44.9611 217.728C49.8088 217.728 53.5677 216.619 56.1161 214.285C58.6755 211.941 59.9002 208.467 59.9002 203.99L58.5795 203.99ZM44.9611 216.407C40.2373 216.407 36.8136 215.169 34.5626 212.805C32.3058 210.435 31.1191 206.821 31.1191 201.839L29.7985 201.839C29.7985 207.009 31.0289 211.009 33.6062 213.716C36.1893 216.428 40.0168 217.728 44.9611 217.728L44.9611 216.407ZM31.1191 201.839C31.1191 198.478 31.5143 194.399 32.3118 189.596L31.009 189.38C30.2043 194.226 29.7985 198.382 29.7985 201.839L31.1191 201.839ZM31.6604 190.148L57.5633 190.148L57.5633 188.828L31.6604 188.828L31.6604 190.148ZM19.8406 172.78L19.8406 172.12L19.1803 172.12L19.1803 172.78L19.8406 172.78ZM25.7086 172.78L26.3689 172.78L26.3689 172.12L25.7086 172.12L25.7086 172.78ZM25.7086 180.185L25.7086 180.846L26.3689 180.846L26.3689 180.185L25.7086 180.185ZM19.8406 180.185L19.1803 180.185L19.1803 180.846L19.8406 180.846L19.8406 180.185ZM30.4588 172.78L30.4588 172.12L29.7985 172.12L29.7985 172.78L30.4588 172.78ZM59.7987 172.78L60.459 172.78L60.459 172.12L59.7987 172.12L59.7987 172.78ZM59.7987 180.185L59.7987 180.846L60.459 180.846L60.459 180.185L59.7987 180.185ZM30.4588 180.185L29.7985 180.185L29.7985 180.846L30.4588 180.846L30.4588 180.185ZM19.8406 173.441L25.7086 173.441L25.7086 172.12L19.8406 172.12L19.8406 173.441ZM25.0483 172.78L25.0483 180.185L26.3689 180.185L26.3689 172.78L25.0483 172.78ZM25.7086 179.525L19.8406 179.525L19.8406 180.846L25.7086 180.846L25.7086 179.525ZM20.5009 180.185L20.5009 172.78L19.1803 172.78L19.1803 180.185L20.5009 180.185ZM30.4588 173.441L59.7987 173.441L59.7987 172.12L30.4588 172.12L30.4588 173.441ZM59.1384 172.78L59.1384 180.185L60.459 180.185L60.459 172.78L59.1384 172.78ZM59.7987 179.525L30.4588 179.525L30.4588 180.846L59.7987 180.846L59.7987 179.525ZM31.1191 180.185L31.1191 172.78L29.7985 172.78L29.7985 180.185L31.1191 180.185ZM58.4016 163.478L58.4016 164.138L58.8732 164.138L59.0262 163.692L58.4016 163.478ZM52.2542 163.478L51.6411 163.233L51.2789 164.138L52.2542 164.138L52.2542 163.478ZM31.856 141.403L31.856 140.743L31.3843 140.743L31.2313 141.189L31.856 141.403ZM38.0034 141.403L38.6164 141.648L38.9787 140.743L38.0034 140.743L38.0034 141.403ZM58.4016 162.817L52.2542 162.817L52.2542 164.138L58.4016 164.138L58.4016 162.817ZM52.8672 163.723C54.2084 160.37 54.8705 156.521 54.8705 152.189L53.5498 152.189C53.5498 156.388 52.908 160.065 51.6411 163.233L52.8672 163.723ZM54.8705 152.189C54.8705 150.547 54.6102 149.201 53.9971 148.248C53.3518 147.245 52.3637 146.75 51.1365 146.75L51.1365 148.071C51.9584 148.071 52.5071 148.373 52.8864 148.962C53.2979 149.602 53.5498 150.646 53.5498 152.189L54.8705 152.189ZM51.1365 146.75C50.0404 146.75 49.1017 147.053 48.4483 147.769C47.8054 148.473 47.5422 149.465 47.5422 150.624L48.8628 150.624C48.8628 149.641 49.0885 149.026 49.4236 148.659C49.7482 148.304 50.2765 148.071 51.1365 148.071L51.1365 146.75ZM47.5422 150.624L47.5422 155.933L48.8628 155.933L48.8628 150.624L47.5422 150.624ZM47.5422 155.933C47.5422 158.815 46.8332 160.854 45.5314 162.176C44.2315 163.497 42.2301 164.215 39.4005 164.215L39.4005 165.535C42.4389 165.535 44.8384 164.763 46.4725 163.103C48.1048 161.445 48.8628 159.013 48.8628 155.933L47.5422 155.933ZM39.4005 164.215C36.5032 164.215 34.4166 163.202 33.0239 161.232C31.6016 159.219 30.8397 156.118 30.8397 151.826L29.5191 151.826C29.5191 156.233 30.2941 159.657 31.9454 161.994C33.6265 164.373 36.1504 165.535 39.4005 165.535L39.4005 164.215ZM30.8397 151.826C30.8397 148.205 31.3881 144.803 32.4806 141.617L31.2313 141.189C30.0884 144.522 29.5191 148.069 29.5191 151.826L30.8397 151.826ZM31.856 142.063L38.0034 142.063L38.0034 140.743L31.856 140.743L31.856 142.063ZM37.3903 141.158C36.0525 144.502 35.3871 148.126 35.3871 152.021L36.7077 152.021C36.7077 148.279 37.3463 144.824 38.6164 141.648L37.3903 141.158ZM35.3871 152.021C35.3871 154.059 35.6441 155.687 36.228 156.828C36.5248 157.408 36.9155 157.881 37.4159 158.207C37.9196 158.535 38.4963 158.689 39.1211 158.689L39.1211 157.369C38.7213 157.369 38.4015 157.273 38.1368 157.1C37.8687 156.926 37.6191 156.647 37.4036 156.226C36.9629 155.365 36.7077 153.989 36.7077 152.021L35.3871 152.021ZM39.1211 158.689C40.234 158.689 41.1786 158.353 41.8272 157.58C42.4572 156.83 42.7154 155.777 42.7154 154.536L41.3948 154.536C41.3948 155.624 41.1639 156.317 40.816 156.731C40.4866 157.123 39.9642 157.369 39.1211 157.369L39.1211 158.689ZM42.7154 154.536L42.7154 149.786L41.3948 149.786L41.3948 154.536L42.7154 154.536ZM42.7154 149.786C42.7154 146.611 43.4311 144.354 44.7464 142.893C46.0497 141.444 48.0438 140.666 50.857 140.666L50.857 139.346C47.8022 139.346 45.3954 140.197 43.7648 142.009C42.146 143.808 41.3948 146.44 41.3948 149.786L42.7154 149.786ZM50.857 140.666C53.7662 140.666 55.8542 141.638 57.2421 143.514C58.6575 145.427 59.4178 148.376 59.4178 152.468L60.7384 152.468C60.7384 148.252 59.962 144.97 58.3037 142.729C56.6178 140.45 54.0952 139.346 50.857 139.346L50.857 140.666ZM59.4178 152.468C59.4178 156.488 58.8671 160.084 57.777 163.264L59.0262 163.692C60.1714 160.352 60.7384 156.608 60.7384 152.468L59.4178 152.468ZM25.7086 132.939L25.0483 132.939L25.0483 133.599L25.7086 133.599L25.7086 132.939ZM25.7086 127.462L25.5573 126.819L25.0483 126.939L25.0483 127.462L25.7086 127.462ZM30.4588 126.344L30.6101 126.987L31.1191 126.867L31.1191 126.344L30.4588 126.344ZM30.4588 118.967L30.4588 118.307L29.7985 118.307L29.7985 118.967L30.4588 118.967ZM36.3268 118.967L36.9871 118.967L36.9871 118.307L36.3268 118.307L36.3268 118.967ZM36.3268 125.534L35.6665 125.534L35.6665 126.194L36.3268 126.194L36.3268 125.534ZM53.9307 118.967L53.9307 118.307L53.2704 118.307L53.2704 118.967L53.9307 118.967ZM59.7987 118.967L60.459 118.967L60.459 118.307L59.7987 118.307L59.7987 118.967ZM26.3689 132.939L26.3689 127.462L25.0483 127.462L25.0483 132.939L26.3689 132.939ZM25.8598 128.105L30.6101 126.987L30.3076 125.701L25.5573 126.819L25.8598 128.105ZM31.1191 126.344L31.1191 118.967L29.7985 118.967L29.7985 126.344L31.1191 126.344ZM30.4588 119.628L36.3268 119.628L36.3268 118.307L30.4588 118.307L30.4588 119.628ZM35.6665 118.967L35.6665 125.534L36.9871 125.534L36.9871 118.967L35.6665 118.967ZM36.3268 126.194L49.8231 126.194L49.8231 124.873L36.3268 124.873L36.3268 126.194ZM49.8231 126.194C51.2724 126.194 52.4826 125.883 53.3355 125.146C54.2069 124.393 54.591 123.297 54.591 121.985L53.2704 121.985C53.2704 123.039 52.9699 123.717 52.4722 124.147C51.9559 124.593 51.1123 124.873 49.8231 124.873L49.8231 126.194ZM54.591 121.985L54.591 118.967L53.2704 118.967L53.2704 121.985L54.591 121.985ZM53.9307 119.628L59.7987 119.628L59.7987 118.307L53.9307 118.307L53.9307 119.628ZM59.1384 118.967L59.1384 125.562L60.459 125.562L60.459 118.967L59.1384 118.967ZM59.1384 125.562C59.1384 127.907 58.5121 129.547 57.3713 130.612C56.2219 131.684 54.436 132.278 51.8909 132.278L51.8909 133.599C54.6177 133.599 56.7857 132.964 58.2722 131.577C59.7673 130.182 60.459 128.135 60.459 125.562L59.1384 125.562ZM51.8909 132.278L25.7086 132.278L25.7086 133.599L51.8909 133.599L51.8909 132.278ZM59.7987 111.62L59.7987 112.281L60.459 112.281L60.459 111.62L59.7987 111.62ZM30.4588 111.62L29.7985 111.62L29.7985 112.281L30.4588 112.281L30.4588 111.62ZM30.4588 105.892L30.3009 105.251L29.7985 105.375L29.7985 105.892L30.4588 105.892ZM34.2032 104.97L34.3611 105.611L35.4788 105.336L34.6769 104.51L34.2032 104.97ZM30.4588 96.8108L30.4588 96.1505L29.7985 96.1505L29.7985 96.8108L30.4588 96.8108ZM36.4386 96.8108L37.0989 96.8108L37.0989 96.1505L36.4386 96.1505L36.4386 96.8108ZM39.8755 104.216L39.4204 104.694L39.6116 104.876L39.8755 104.876L39.8755 104.216ZM59.7987 104.216L60.459 104.216L60.459 103.555L59.7987 103.555L59.7987 104.216ZM59.7987 110.96L30.4588 110.96L30.4588 112.281L59.7987 112.281L59.7987 110.96ZM31.1191 111.62L31.1191 105.892L29.7985 105.892L29.7985 111.62L31.1191 111.62ZM30.6167 106.533L34.3611 105.611L34.0453 104.329L30.3009 105.251L30.6167 106.533ZM34.6769 104.51C32.269 102.03 31.1191 99.4676 31.1191 96.8108L29.7985 96.8108C29.7985 99.8916 31.1449 102.768 33.7294 105.43L34.6769 104.51ZM30.4588 97.4711L36.4386 97.4711L36.4386 96.1505L30.4588 96.1505L30.4588 97.4711ZM35.7783 96.8108C35.7783 99.7759 37.0192 102.41 39.4204 104.694L40.3306 103.737C38.1493 101.662 37.0989 99.3598 37.0989 96.8108L35.7783 96.8108ZM39.8755 104.876L59.7987 104.876L59.7987 103.555L39.8755 103.555L39.8755 104.876ZM59.1384 104.216L59.1384 111.62L60.459 111.62L60.459 104.216L59.1384 104.216ZM42.4742 73.0059L43.1233 73.1272L43.2694 72.3456L42.4742 72.3456L42.4742 73.0059ZM37.7239 89.3524L37.7239 90.0127L38.5599 90.0127L38.3663 89.1994L37.7239 89.3524ZM31.856 89.3524L31.2136 89.5053L31.3344 90.0127L31.856 90.0127L31.856 89.3524ZM59.7987 65.601L60.459 65.601L60.459 64.9407L59.7987 64.9407L59.7987 65.601ZM59.7987 69.9042L60.2656 70.3711L60.459 70.1777L60.459 69.9042L59.7987 69.9042ZM57.1721 72.5308L56.7052 72.0639L56.3172 72.4519L56.6276 72.9044L57.1721 72.5308ZM47.5039 73.0059L47.5039 72.3456L46.9626 72.3456L46.8564 72.8764L47.5039 73.0059ZM52.1983 73.0059L52.7327 72.618L52.535 72.3456L52.1983 72.3456L52.1983 73.0059ZM50.6614 91.0672C47.9303 91.0672 45.963 90.0867 44.6463 88.1683C43.2988 86.2052 42.5757 83.1779 42.5757 78.9856L41.255 78.9856C41.255 83.2879 41.9896 86.6315 43.5575 88.9157C45.1561 91.2446 47.5618 92.3878 50.6614 92.3878L50.6614 91.0672ZM42.5757 78.9856C42.5757 77.0338 42.7581 75.0811 43.1233 73.1272L41.8251 72.8845C41.4452 74.9171 41.255 76.9509 41.255 78.9856L42.5757 78.9856ZM42.4742 72.3456L40.2667 72.3456L40.2667 73.6662L42.4742 73.6662L42.4742 72.3456ZM40.2667 72.3456C38.7724 72.3456 37.5684 72.897 36.7695 74.0473C36.0009 75.1538 35.6665 76.7314 35.6665 78.6782L36.9871 78.6782C36.9871 76.8435 37.3094 75.5849 37.8541 74.8006C38.3685 74.0601 39.1344 73.6662 40.2667 73.6662L40.2667 72.3456ZM35.6665 78.6782C35.6665 81.9449 36.1411 85.5553 37.0816 89.5053L38.3663 89.1994C37.4439 85.3254 36.9871 81.8197 36.9871 78.6782L35.6665 78.6782ZM37.7239 88.692L31.856 88.692L31.856 90.0127L37.7239 90.0127L37.7239 88.692ZM32.4983 89.1994C31.5759 85.3254 31.1191 81.8197 31.1191 78.6782L29.7985 78.6782C29.7985 81.9449 30.2731 85.5553 31.2136 89.5053L32.4983 89.1994ZM31.1191 78.6782C31.1191 74.3812 31.9168 71.2783 33.4068 69.2629C34.8693 67.2847 37.069 66.2613 40.127 66.2613L40.127 64.9407C36.7396 64.9407 34.1052 66.0968 32.3449 68.4778C30.6122 70.8214 29.7985 74.2571 29.7985 78.6782L31.1191 78.6782ZM40.127 66.2613L59.7987 66.2613L59.7987 64.9407L40.127 64.9407L40.127 66.2613ZM59.1384 65.601L59.1384 69.9042L60.459 69.9042L60.459 65.601L59.1384 65.601ZM59.3318 69.4373L56.7052 72.0639L57.639 72.9977L60.2656 70.3711L59.3318 69.4373ZM56.6276 72.9044C58.3038 75.3474 59.1384 78.0302 59.1384 80.9695L60.459 80.9695C60.459 77.7615 59.5425 74.8185 57.7166 72.1572L56.6276 72.9044ZM59.1384 80.9695C59.1384 84.4777 58.3912 86.9857 57.0111 88.6106C55.6486 90.2148 53.5746 91.0672 50.6614 91.0672L50.6614 92.3878C53.8398 92.3878 56.3345 91.4472 58.0177 89.4655C59.6833 87.5044 60.459 84.6333 60.459 80.9695L59.1384 80.9695ZM46.8564 72.8764C46.4744 74.7865 46.2847 76.8235 46.2847 78.9856L47.6054 78.9856C47.6054 76.9004 47.7883 74.9509 48.1514 73.1353L46.8564 72.8764ZM46.2847 78.9856C46.2847 80.8189 46.5929 82.3103 47.3073 83.3599C48.0527 84.455 49.1802 84.983 50.5776 84.983L50.5776 83.6624C49.5533 83.6624 48.8646 83.3008 48.3991 82.6169C47.9026 81.8874 47.6054 80.7103 47.6054 78.9856L46.2847 78.9856ZM50.5776 84.983C52.008 84.983 53.1944 84.5702 54.0085 83.6398C54.8079 82.7262 55.1499 81.4238 55.1499 79.8518L53.8293 79.8518C53.8293 81.2604 53.5193 82.1935 53.0147 82.7701C52.5248 83.33 51.7552 83.6624 50.5776 83.6624L50.5776 84.983ZM55.1499 79.8518C55.1499 77.2452 54.337 74.8289 52.7327 72.618L51.6639 73.3937C53.1146 75.3929 53.8293 77.5405 53.8293 79.8518L55.1499 79.8518ZM52.1983 72.3456L47.5039 72.3456L47.5039 73.6662L52.1983 73.6662L52.1983 72.3456Z" fill="#DEDEDE" mask="url(#path-1-outside-1_299_303)"/>
<path d="M83.8193 57.9121C54.9742 49.9964 27.1717 50.6653 0.180176 57.9121L41.9997 17.6646L83.8193 57.9121Z" fill="#DEDEDE"/>
<path d="M74.3829 31.2172C52.5338 25.1584 31.3019 25.6336 10.9341 31.2172L42.6585 0.685406L74.3829 31.2172Z" fill="#DEDEDE"/>
</svg>
