<svg width="248" height="248" viewBox="0 0 248 248" fill="none" xmlns="http://www.w3.org/2000/svg">
<path d="M248 166.189V226.643C248 229.06 247.041 231.378 245.332 233.091C243.623 234.803 241.304 235.769 238.883 235.777H220.167C219.723 235.773 219.285 235.671 218.885 235.48C218.484 235.29 218.129 235.014 217.846 234.673C217.562 234.332 217.356 233.933 217.243 233.504C217.129 233.076 217.11 232.628 217.187 232.191C217.54 230.378 217.728 228.538 217.751 226.691C217.733 221.071 215.98 215.593 212.732 211.003C209.484 206.413 204.898 202.934 199.598 201.04V207.585C203.944 209.643 207.458 213.116 209.564 217.433C211.67 221.749 212.242 226.653 211.186 231.338C210.129 236.022 207.508 240.209 203.753 243.208C199.997 246.207 195.331 247.842 190.522 247.842C185.713 247.842 181.047 246.207 177.291 243.208C173.536 240.209 170.915 236.022 169.858 231.338C168.802 226.653 169.374 221.749 171.48 217.433C173.586 213.116 177.101 209.643 181.446 207.585V201.04C176.146 202.934 171.56 206.413 168.312 211.003C165.064 215.593 163.311 221.071 163.293 226.691C163.316 228.538 163.504 230.378 163.857 232.191C163.934 232.628 163.915 233.076 163.801 233.504C163.688 233.933 163.482 234.332 163.198 234.673C162.915 235.014 162.56 235.29 162.16 235.48C161.759 235.671 161.321 235.773 160.877 235.777H111.509C107.936 235.871 104.452 234.662 101.707 232.377C98.9622 230.092 97.1446 226.888 96.5939 223.362C95.8499 217.327 93.119 211.709 88.8303 207.392C85.9633 204.535 82.4819 202.368 78.6507 201.056V207.585C82.9959 209.643 86.5104 213.116 88.6163 217.433C90.7223 221.749 91.2941 226.653 90.238 231.338C89.1818 236.022 86.5604 240.209 82.8049 243.208C79.0495 246.207 74.3835 247.842 69.5743 247.842C64.7652 247.842 60.0992 246.207 56.3438 243.208C52.5883 240.209 49.9669 236.022 48.9107 231.338C47.8545 226.653 48.4264 221.749 50.5323 217.433C52.6382 213.116 56.1528 209.643 60.498 207.585V201.152C56.6617 202.474 53.1718 204.64 50.2862 207.489C49.7068 208.003 48.9517 208.277 48.1765 208.252C47.4014 208.227 46.6653 207.906 46.12 207.356C45.5747 206.805 45.2618 206.067 45.2458 205.292C45.2298 204.518 45.5119 203.767 46.0339 203.195C46.7909 202.439 47.6446 201.747 48.4016 201.072V175.34H42.3454V244.977C42.3454 245.778 42.0264 246.547 41.4585 247.114C40.8906 247.681 40.1204 248 39.3173 248H3.02814C2.22502 248 1.4548 247.681 0.886932 247.114C0.319046 246.547 0 245.778 0 244.977C0 244.175 0.319046 243.406 0.886932 242.839C1.4548 242.272 2.22502 241.953 3.02814 241.953H36.2569V147.968C36.2266 147.554 36.2822 147.137 36.4202 146.745C36.5582 146.353 36.7757 145.994 37.0591 145.689C37.3425 145.385 37.6858 145.142 38.0674 144.976C38.449 144.81 38.8607 144.724 39.277 144.724C39.6933 144.724 40.105 144.81 40.4866 144.976C40.8682 145.142 41.2115 145.385 41.4949 145.689C41.7783 145.994 41.9958 146.353 42.1338 146.745C42.2718 147.137 42.3274 147.554 42.2971 147.968V157.071H48.2728V51.0886C48.2728 50.2867 48.5918 49.5177 49.1597 48.9507C49.7276 48.3837 50.4978 48.0651 51.3009 48.0651H75.4615C76.2646 48.0651 77.0348 48.3837 77.6027 48.9507C78.1705 49.5177 78.4896 50.2867 78.4896 51.0886V158.84L97.3992 177.656L108.867 63.472C108.943 62.7269 109.293 62.0365 109.85 61.5344C110.406 61.0323 111.129 60.7542 111.879 60.754H145.157V45.6367C145.157 43.2324 146.111 40.9261 147.811 39.2229C149.51 37.5198 151.817 36.5587 154.225 36.5502H157.253V3.24383C157.223 2.82932 157.278 2.41302 157.416 2.02092C157.554 1.62882 157.772 1.26934 158.055 0.964937C158.339 0.660532 158.682 0.417737 159.063 0.251712C159.445 0.0856877 159.857 0 160.273 0C160.689 0 161.101 0.0856877 161.483 0.251712C161.864 0.417737 162.207 0.660532 162.491 0.964937C162.774 1.26934 162.992 1.62882 163.13 2.02092C163.268 2.41302 163.323 2.82932 163.293 3.24383V36.5502H166.321C168.732 36.5545 171.043 37.5137 172.746 39.2173C174.449 40.9209 175.406 43.2296 175.406 45.6367V60.7862H184.474C185.274 60.7862 186.042 61.1025 186.609 61.6661C187.177 62.2296 187.498 62.9945 187.502 63.7936V168.007L219.813 157.216C220.126 157.119 220.451 157.07 220.779 157.071H238.883C241.303 157.075 243.622 158.038 245.331 159.747C247.04 161.457 248 163.774 248 166.189ZM48.2728 163.102H42.2165V169.181H48.2728V163.102ZM72.4333 193.658V54.096H66.3932V112.25C66.3932 113.051 66.0742 113.82 65.5063 114.387C64.9384 114.954 64.1682 115.273 63.3651 115.273C62.562 115.273 61.7918 114.954 61.2239 114.387C60.656 113.82 60.3369 113.051 60.3369 112.25V54.096H54.2807V197.067C59.9262 194.234 66.2537 193.036 72.5461 193.61L72.4333 193.658ZM66.3932 199.721V205.8C68.3937 205.478 70.4328 205.478 72.4333 205.8V199.641C70.4631 199.432 68.4762 199.432 66.506 199.641L66.3932 199.721ZM69.4213 211.59C66.4184 211.58 63.4801 212.461 60.9786 214.119C58.4771 215.778 56.5249 218.141 55.369 220.908C54.2132 223.676 53.9059 226.723 54.4859 229.665C55.0658 232.607 56.5071 235.311 58.6271 237.434C60.7471 239.558 63.4506 241.006 66.3951 241.594C69.3397 242.182 72.3929 241.885 75.1682 240.74C77.9435 239.595 80.316 237.653 81.9854 235.161C83.6547 232.668 84.5458 229.738 84.5458 226.739C84.5546 222.742 82.9824 218.903 80.1712 216.057C77.3601 213.211 73.5372 211.588 69.5341 211.541L69.4213 211.59ZM151.197 60.7862H169.349V45.6367C169.351 45.2383 169.275 44.8434 169.123 44.4747C168.972 44.1061 168.75 43.7709 168.468 43.4884C168.187 43.2059 167.852 42.9818 167.484 42.8288C167.115 42.6759 166.72 42.5972 166.321 42.5972H154.225C153.42 42.6014 152.65 42.9235 152.083 43.4931C151.515 44.0627 151.197 44.8334 151.197 45.6367V60.7862ZM114.006 72.8962H181.446V66.8171H114.618L114.006 72.8962ZM103.037 181.291H109.914L127.745 141.262L121.834 135.311C121.528 135.036 121.283 134.702 121.111 134.329C120.939 133.956 120.846 133.552 120.836 133.142C120.826 132.731 120.899 132.323 121.052 131.942C121.205 131.561 121.434 131.215 121.726 130.925C122.017 130.636 122.364 130.408 122.746 130.257C123.129 130.106 123.538 130.033 123.949 130.045C124.36 130.057 124.764 130.152 125.137 130.325C125.51 130.497 125.844 130.744 126.118 131.05L140.856 145.797C141.376 146.372 141.655 147.124 141.636 147.898C141.617 148.671 141.301 149.409 140.754 149.957C140.206 150.506 139.469 150.824 138.694 150.846C137.919 150.867 137.165 150.592 136.588 150.075L132.319 145.813L116.534 181.194H147.685L157.253 177.978V162.989H148.136C147.374 162.933 146.66 162.592 146.139 162.032C145.618 161.473 145.329 160.737 145.329 159.974C145.329 159.21 145.618 158.475 146.139 157.915C146.66 157.356 147.374 157.014 148.136 156.958H169.349V123.748C169.349 122.946 169.668 122.177 170.236 121.61C170.804 121.043 171.574 120.725 172.377 120.725C173.181 120.725 173.951 121.043 174.519 121.61C175.087 122.177 175.406 122.946 175.406 123.748V160.078C175.406 160.482 175.325 160.882 175.168 161.254C175.01 161.626 174.78 161.963 174.49 162.245C174.201 162.527 173.857 162.748 173.481 162.895C173.104 163.042 172.701 163.112 172.297 163.102H163.213V176.08L181.365 170.033V78.927H113.394L103.037 181.291ZM78.5218 181.291H92.4866L78.6023 167.396L78.5218 181.291ZM190.53 211.541C187.527 211.532 184.589 212.412 182.087 214.071C179.586 215.73 177.634 218.093 176.478 220.86C175.322 223.627 175.015 226.675 175.595 229.617C176.175 232.559 177.616 235.263 179.736 237.386C181.856 239.51 184.559 240.957 187.504 241.546C190.448 242.134 193.502 241.837 196.277 240.692C199.052 239.547 201.425 237.605 203.094 235.113C204.763 232.62 205.655 229.689 205.655 226.691C205.655 222.681 204.063 218.835 201.228 215.996C198.393 213.156 194.546 211.554 190.53 211.541ZM190.53 205.511C191.544 205.518 192.556 205.598 193.558 205.752V199.641C191.546 199.405 189.514 199.405 187.502 199.641V205.768C188.504 205.608 189.516 205.522 190.53 205.511ZM241.944 175.228H235.904V193.401H241.944V175.228ZM241.944 166.189C241.944 165.376 241.622 164.596 241.049 164.017C240.476 163.439 239.698 163.11 238.883 163.102H221.278L149.135 187.225C148.822 187.322 148.496 187.371 148.169 187.37H78.6023V194.768C84.0771 196.275 89.07 199.166 93.0987 203.163C98.34 208.433 101.673 215.297 102.57 222.67C102.968 224.73 104.092 226.579 105.738 227.883C107.383 229.187 109.442 229.859 111.541 229.779H157.398C157.301 228.707 157.253 227.693 157.253 226.739C157.253 217.927 160.759 209.476 167 203.245C173.24 197.014 181.704 193.513 190.53 193.513C199.356 193.513 207.82 197.014 214.061 203.245C220.301 209.476 223.807 217.927 223.807 226.739C223.807 227.726 223.759 228.739 223.662 229.779H238.883C239.287 229.777 239.687 229.695 240.06 229.539C240.432 229.382 240.77 229.154 241.054 228.868C241.338 228.581 241.563 228.241 241.716 227.868C241.868 227.494 241.946 227.094 241.944 226.691V199.448H232.875C232.074 199.443 231.306 199.123 230.739 198.557C230.172 197.991 229.852 197.225 229.847 196.424V172.204C229.847 171.402 230.166 170.633 230.734 170.066C231.302 169.499 232.072 169.181 232.875 169.181H241.944V166.189Z" fill="#E3E3E3"/>
<path d="M148.136 217.621H111.879C111.076 217.621 110.306 217.939 109.738 218.506C109.17 219.073 108.851 219.842 108.851 220.644C108.851 221.446 109.17 222.215 109.738 222.782C110.306 223.349 111.076 223.668 111.879 223.668H148.136C148.534 223.668 148.928 223.589 149.295 223.437C149.663 223.285 149.996 223.063 150.278 222.782C150.559 222.501 150.782 222.168 150.934 221.801C151.086 221.434 151.165 221.041 151.165 220.644C151.165 220.247 151.086 219.854 150.934 219.487C150.782 219.12 150.559 218.787 150.278 218.506C149.996 218.225 149.663 218.003 149.295 217.851C148.928 217.699 148.534 217.621 148.136 217.621Z" fill="#E3E3E3"/>
<path d="M148.136 205.511H123.976C123.561 205.48 123.144 205.536 122.751 205.674C122.358 205.811 121.998 206.029 121.693 206.312C121.389 206.595 121.145 206.937 120.979 207.318C120.813 207.699 120.727 208.11 120.727 208.526C120.727 208.942 120.813 209.353 120.979 209.734C121.145 210.115 121.389 210.458 121.693 210.74C121.998 211.023 122.358 211.241 122.751 211.378C123.144 211.516 123.561 211.572 123.976 211.541H148.136C148.552 211.572 148.968 211.516 149.361 211.378C149.754 211.241 150.114 211.023 150.419 210.74C150.724 210.458 150.967 210.115 151.133 209.734C151.299 209.353 151.385 208.942 151.385 208.526C151.385 208.11 151.299 207.699 151.133 207.318C150.967 206.937 150.724 206.595 150.419 206.312C150.114 206.029 149.754 205.811 149.361 205.674C148.968 205.536 148.552 205.48 148.136 205.511Z" fill="#E3E3E3"/>
</svg>
