<svg width="335" height="220" viewBox="0 0 335 220" fill="none" xmlns="http://www.w3.org/2000/svg">
<path d="M310.766 217.942V181.856H277.504V199.266H277.187V193.41H274.019V176.158H257.704V180.748H255.962V162.072H222.7V187.87H210.979V217.942H203.534V205.281H197.991V192.777H185.953V76.6043H200.366L205.593 56.6619H186.428V52.0719H193.397C196.407 52.0719 198.783 49.6978 198.783 46.6906V42.259C198.783 40.3597 198.307 38.6187 197.357 37.036H197.832L195.773 34.9784C195.615 34.8201 195.456 34.6619 195.298 34.5036L185.161 25.6403C183.26 24.0576 180.884 23.1079 178.35 23.1079H175.024V18.9928H184.844V17.2518H268.634V36.2446C267.525 37.036 266.733 38.3022 266.258 39.5683L213.83 87.0504H210.979V99.0791H217.79V139.914H210.979V151.942H229.986V150.36H315.993V152.101H335V140.072H328.189V99.0791H335V87.0504H332.307L279.879 39.5683L279.721 39.7266C279.246 38.3022 278.296 37.036 277.028 36.2446V17.2518H278.454C281.463 17.2518 283.839 14.8777 283.839 11.8705C283.839 8.86331 281.463 6.48921 278.454 6.48921H184.686V0H152.215L147.305 18.9928H161.56V23.2662C158.234 23.8993 155.7 26.7482 155.7 30.2302V46.6906C155.7 49.6978 158.076 52.0719 161.085 52.0719H161.56V56.6619H145.879V76.6043H159.343V192.619H145.879V205.122H140.336V217.784H130.199V47.9568H132.574V34.187H87.591V30.0719H111.825V7.59712H30.7281V30.0719H55.1206V34.187H13.1466V47.9568H15.8392V217.626H18.2151V47.9568H104.539V217.626H70.4846V180.906H37.8558V217.626H0V220H306.806M161.877 78.5036L171.697 88.3166L161.877 98.1295V78.5036ZM183.577 190.245L175.024 181.698L183.577 173.151V190.245ZM173.281 180.115L163.303 170.144L173.281 160.173L183.26 170.144L173.281 180.115ZM183.577 166.978L175.024 158.432L183.577 149.885V166.978ZM173.281 156.691L163.303 146.719L173.281 136.748L183.26 146.719L173.281 156.691ZM183.577 143.554L175.024 135.007L183.577 126.46V143.554ZM173.281 133.266L163.303 123.295L173.281 113.324L183.26 123.295L173.281 133.266ZM183.577 120.13L175.024 111.583L183.577 103.036V120.13ZM173.281 110L163.303 100.029L173.281 90.0575L183.26 100.029L173.281 110ZM183.577 96.705L175.024 88.1583L183.577 79.6115V96.705ZM173.281 86.5755L163.461 76.7626H183.26L173.281 86.5755ZM161.877 101.928L171.697 111.741L161.877 121.554V101.928ZM161.877 125.194L171.697 135.007L161.877 144.82V125.194ZM161.877 148.619L171.697 158.432L161.877 168.245V148.619ZM161.877 172.043L171.697 181.856L161.877 191.669V172.043ZM173.281 183.439L182.468 192.619H164.095L173.281 183.439ZM178.35 25.6403C180.251 25.6403 182.151 26.2734 183.577 27.5396L191.813 34.8201H178.033V25.6403H178.35ZM213.355 89.4245H227.61V96.705H213.355V89.4245ZM227.61 149.727H213.355V142.446H227.61V149.727ZM229.986 147.986V144.029H315.993V147.986H229.986ZM332.783 149.727H318.527V142.446H332.783V149.727ZM316.151 139.914V141.496H230.144V139.914H220.165V99.0791H222.225V133.424H224.6V99.0791H228.719V122.82H231.095V97.4964H235.53V133.583H237.905V97.4964H242.024V122.978H244.4V97.4964H248.835V133.583H251.21V97.4964H255.329V122.978H257.704V97.4964H262.139V133.583H264.515V97.4964H268.634V122.978H271.009V97.4964H275.444V133.583H277.82V97.4964H281.939V122.978H284.314V97.4964H288.749V133.583H291.125V97.4964H295.243V122.978H297.619V97.4964H302.054V133.583H304.43V97.4964H308.548V122.978H310.924V97.4964H315.359V133.583H317.735V99.0791H321.853V122.82H324.229V99.0791H326.288V139.914H316.151ZM229.986 91.0072H315.993V95.1223H229.986V91.0072ZM332.783 96.705H318.527V89.4245H332.783V96.705ZM280.196 42.8921L328.823 87.0504H316.151V88.6331H230.144V87.0504H217.473L266.099 43.2086C266.574 46.6906 269.584 49.223 273.227 49.223C276.712 49.223 279.721 46.3741 280.196 42.8921ZM273.069 46.8489C270.376 46.8489 268.317 44.6331 268.317 42.1007C268.317 39.4101 270.534 37.3525 273.069 37.3525C275.761 37.3525 277.82 39.5683 277.82 42.1007C277.82 44.6331 275.761 46.8489 273.069 46.8489ZM274.811 34.9784C274.336 34.8201 273.702 34.8201 273.069 34.8201C272.435 34.8201 271.801 34.9784 271.168 35.1367V17.2518H274.811V34.9784ZM278.612 8.86331C280.355 8.86331 281.622 10.2878 281.622 11.8705C281.622 13.6115 280.196 14.8777 278.612 14.8777H184.844V8.86331H278.612ZM154.116 2.3741H182.468V16.6187H150.473L154.116 2.3741ZM172.648 18.9928V23.1079H164.095V18.9928H172.648ZM158.234 46.6906V30.2302C158.234 27.6978 160.293 25.6403 162.827 25.6403H175.499V37.1942H194.189C194.981 38.1439 195.615 39.2518 195.931 40.518H182.31V42.7338H196.248V46.6906C196.248 48.2734 194.981 49.6978 193.239 49.6978H161.243C159.66 49.6978 158.234 48.4317 158.234 46.6906ZM164.095 52.0719H183.894V56.6619H164.095V52.0719ZM148.414 71.223H182.151V68.8489H148.414V64.259H169.005V61.8849H148.414V59.036H202.267L198.307 74.2302H148.414V71.223ZM148.414 194.993H195.615V205.122H148.414V194.993ZM142.87 207.496H201.158V217.309H142.87V207.496ZM293.501 184.23H296.986V189.77H293.501V184.23ZM279.879 184.23H290.967V192.144H299.203V184.23H308.39V217.784C307.915 217.784 307.281 217.784 306.806 217.784H302.213V199.266H279.879V184.23ZM284.79 201.64H288.274V207.18H284.79V201.64ZM277.345 217.784V201.64H282.572V209.554H290.809V201.64H299.995V217.784H246.617V195.784H257.704V203.698H265.941V195.784H275.128V217.784H277.345ZM259.922 195.626H263.407V201.165H259.922V195.626ZM271.643 178.374V193.252H260.08V178.374H271.643ZM257.863 193.252H246.617V182.964H257.863V193.252ZM238.539 164.288H242.024V169.827H238.539V164.288ZM225.076 164.288H236.163V172.201H244.4V164.288H253.586V180.59H244.083V187.712H225.076V164.288ZM230.778 190.086H234.262V195.468H230.778V190.086ZM228.402 190.086V197.842H236.638V190.086H244.083V193.252H243.924V217.626H213.196V190.086H228.402ZM130.515 45.5827H106.915V36.5611H130.515V45.5827ZM33.104 9.97122H109.449V27.8561H33.104V9.97122ZM57.6549 30.0719H85.3735V34.187H57.6549V30.0719ZM15.5225 45.5827V36.5611H104.539V45.5827H15.5225ZM106.915 47.9568H127.981V217.626H106.915V47.9568ZM40.2317 183.439H52.9031V217.626H55.4374V183.439H68.1087V217.784H40.2317V183.439Z" fill="#DF3214"/>
</svg>
