<svg width="300" height="214" viewBox="0 0 300 214" fill="none" xmlns="http://www.w3.org/2000/svg">
<path d="M300 134.042V114.928H290.792V89.7647H294.669V86.1354H290.792V61.6981H294.669V58.0688H290.792H277.221V31.9378H281.099V28.3085H277.221V3.6293H281.099V0H277.221H241.357H237.48V3.6293H241.357V28.3085H237.48V31.9378H241.357V58.0688H208.885H205.008V61.6981H208.885V86.3774H205.008V90.0067H208.885V114.202H198.465V102.104H187.561V36.293H198.465V17.1787H167.932V19.8402H30.2908V17.1787H0V36.293H10.9047V101.862H0V120.977H26.6559V133.074H37.5606V198.644H26.6559V218H30.2908V202.273H53.3118V218H56.9467V214.855H194.588V217.274H198.223V202.273H221.244V217.274H224.879V205.66H269.709V216.79H273.344V203.241H296.365V218.242H300V199.612H289.095V134.042H300ZM296.365 130.413H273.344V118.557H296.365V130.413ZM287.157 98.2331H269.467V101.862H287.157V105.492H277.706V109.121H287.157V114.686H269.709V117.347H258.32V89.7647H286.914V98.2331H287.157ZM269.709 127.751H224.879V120.977H269.709V127.751ZM244.75 89.7647H248.627V86.1354H244.75V61.6981H254.927V86.1354H251.05V89.7647H254.927V117.347H244.75V89.7647ZM287.157 86.1354H258.562V77.1831H268.255V73.5538H258.562V61.6981H277.464H281.341H287.399V86.1354H287.157ZM244.992 19.1143H254.685V15.485H244.992V3.6293H273.586V28.3085H244.992V19.1143ZM273.586 31.9378V40.4062H255.897V44.0355H273.586V47.6648H264.136V51.2941H273.586V58.0688H254.685H250.808H248.384H244.75V31.9378H273.586ZM212.52 77.1831H222.213V73.5538H212.52V61.6981H237.48H241.115V86.1354H212.52V77.1831ZM212.52 89.7647H241.115V98.2331H223.425V101.862H241.115V105.492H231.664V109.121H241.115V117.347H224.879V113.96H212.278V89.7647H212.52ZM198.223 129.445V117.589H221.244V129.445H198.223ZM194.588 127.026H56.9467V120.251H194.588V127.026ZM30.2908 108.153H167.932V116.622H56.9467V113.96H30.2908V108.153ZM194.588 113.96V115.17V116.622H171.567V105.492H194.588V113.96ZM171.567 20.808H194.588V32.6637H171.567V20.808ZM167.932 23.4695V30.2442H30.2908V23.4695H167.932ZM3.63489 20.808H26.6559V32.6637H3.63489V20.808ZM14.5396 36.293H17.9321V91.4584H21.567V36.293H28.3522V74.5216H31.9871V33.8735H39.2569V91.4584H42.8918V33.8735H49.6769V74.5216H53.3118V33.8735H60.5816V91.4584H64.2165V33.8735H71.0016V74.5216H74.6365V33.8735H81.9063V91.4584H85.5412V33.8735H92.3263V74.5216H95.9612V33.8735H103.231V91.4584H106.866V33.8735H113.651V74.5216H117.286V33.8735H124.556V91.4584H128.191V33.8735H134.976V74.5216H138.611V33.8735H145.88V91.4584H149.515V33.8735H156.3V74.5216H159.935V33.8735H167.205V91.4584H170.84V36.293H177.625V74.5216H181.26V36.293H184.653V101.862H168.901V104.524H30.2908V101.862H14.5396V36.293ZM3.63489 117.347V105.492H26.6559V113.96V117.347H3.63489ZM30.2908 120.977V117.589H53.3118V129.445H30.2908V120.977ZM56.9467 211.467V204.934H194.588V211.467H56.9467ZM194.588 198.644V201.305H56.9467V198.644H41.1955V133.074H44.588V188.24H48.2229V133.074H55.0081V171.303H58.643V130.655H65.9128V188.24H69.5477V130.655H76.3328V171.303H79.9677V130.655H87.2375V188.24H90.8724V130.655H97.6575V171.303H101.292V130.655H108.562V188.24H112.197V130.655H118.982V171.303H122.617V130.655H129.887V188.24H133.522V130.655H140.307V171.303H143.942V130.655H151.212V188.24H154.847V130.655H161.632V171.303H165.267V130.655H172.536V188.24H176.171V130.655H182.956V171.303H186.591V130.655H193.861V188.24H197.496V133.074H204.281V171.303H207.916V133.074H211.309V198.644H194.588ZM285.46 199.612H269.709V202.273H224.879V198.886H213.974V133.074H224.879V131.139H225.606V188.724H229.241V131.381H236.026V172.029H239.661V131.381H246.931V188.966H250.565V131.381H257.351V172.029H260.985V131.381H268.255V188.966H271.89V134.042H278.675V172.271H282.31V134.042H285.703V199.612H285.46Z" fill="#EDEDED"/>
</svg>
