<svg width="152" height="87" viewBox="0 0 152 87" fill="none" xmlns="http://www.w3.org/2000/svg">
<path d="M150.555 85.554H152V30.3657H101.414V56.8754H100.932V47.9585H96.1141V21.4488H71.3027V28.4377H68.6529V0H18.0666V39.2825H0V87H150.555V85.554ZM125.502 33.9806H130.802V42.4155H125.502V33.9806ZM105.027 33.9806H121.889V46.0305H134.415V33.9806H148.387V83.385H138.992V56.8754H105.027V33.9806ZM112.254 60.4903H117.553V68.9252H112.254V60.4903ZM108.64 60.4903V72.5402H121.166V60.4903H135.138V83.626H100.932V60.4903H108.64ZM97.3185 83.385H53.9588V51.3324H70.8209V63.3823H83.3471V51.3324H97.3185V83.385ZM74.4342 51.3324H79.7337V59.7673H74.4342V51.3324ZM92.5008 25.0637V47.7175H74.916V25.0637H92.5008ZM71.3027 47.7175H54.1997V32.0526H71.3027V47.7175ZM42.1553 3.61496H47.4548V12.0499H42.1553V3.61496ZM21.439 3.61496H38.3011V15.6648H50.8273V3.61496H64.7987V28.4377H50.3455V39.2825H21.439V3.61496ZM30.1109 42.8975H35.4105V51.0914H30.1109V42.8975ZM3.61331 42.8975H26.4976V54.7064H39.0238V42.8975H50.3455V47.7175H50.1046V83.385H3.61331V42.8975Z" fill="#132F45"/>
</svg>
