<svg width="264" height="290" viewBox="0 0 264 290" fill="none" xmlns="http://www.w3.org/2000/svg">
<path d="M31.9745 287.288V239.719H75.861V262.669H76.279V254.95H80.4586V232.209H101.984V238.259H104.283V213.64H148.169V247.647H163.634V287.288H173.456V270.597H180.771V254.115H196.653V100.978H177.636L170.739 74.6906H196.026V68.6403H186.831C182.861 68.6403 179.726 65.5108 179.726 61.5468V55.705C179.726 53.2014 180.353 50.9065 181.607 48.8201H180.98L183.696 46.1079C183.905 45.8993 184.114 45.6906 184.323 45.482L197.698 33.7986C200.206 31.7122 203.341 30.4604 206.685 30.4604H211.073V25.036H198.116V22.741H87.5641V47.777C89.0269 48.8201 90.0719 50.4892 90.6988 52.1583L159.872 114.748H163.634V130.604H154.648V184.432H163.634V200.288H138.556V198.201H25.078V200.496H0V184.64H8.9863V130.604H0V114.748H3.5527L72.7263 52.1583L72.9352 52.3669C73.5622 50.4892 74.8161 48.8201 76.4879 47.777V22.741H74.6071C70.6364 22.741 67.5016 19.6115 67.5016 15.6475C67.5016 11.6835 70.6364 8.55396 74.6071 8.55396H198.325V0H241.167L247.645 25.036H228.837V30.6691C233.226 31.5036 236.569 35.259 236.569 39.8489V61.5468C236.569 65.5108 233.435 68.6403 229.464 68.6403H228.837V74.6906H249.526V100.978H231.763V253.906H249.526V270.388H256.841V287.079H270.216V63.2158H267.081V45.0647H326.432V39.6403H294.458V10.0144H401.457V39.6403H369.274V45.0647H424.654V63.2158H421.102V286.87H417.967V63.2158H304.071V286.87H349.002V238.468H392.053V286.87H442V290H37.199M228.419 103.482L215.462 116.417L228.419 129.353V103.482ZM199.788 250.777L211.073 239.511L199.788 228.245V250.777ZM213.372 237.424L226.538 224.281L213.372 211.137L200.206 224.281L213.372 237.424ZM199.788 220.108L211.073 208.842L199.788 197.576V220.108ZM213.372 206.547L226.538 193.403L213.372 180.259L200.206 193.403L213.372 206.547ZM199.788 189.23L211.073 177.964L199.788 166.698V189.23ZM213.372 175.669L226.538 162.525L213.372 149.381L200.206 162.525L213.372 175.669ZM199.788 158.353L211.073 147.086L199.788 135.82V158.353ZM213.372 145L226.538 131.856L213.372 118.712L200.206 131.856L213.372 145ZM199.788 127.475L211.073 116.209L199.788 104.942V127.475ZM213.372 114.122L226.329 101.187H200.206L213.372 114.122ZM228.419 134.36L215.462 147.295L228.419 160.23V134.36ZM228.419 165.029L215.462 177.964L228.419 190.899V165.029ZM228.419 195.906L215.462 208.842L228.419 221.777V195.906ZM228.419 226.784L215.462 239.719L228.419 252.655V226.784ZM213.372 241.806L201.251 253.906H225.493L213.372 241.806ZM206.685 33.7986C204.177 33.7986 201.669 34.6331 199.788 36.3022L188.921 45.8993H207.103V33.7986H206.685ZM160.499 117.878H141.691V127.475H160.499V117.878ZM141.691 197.367H160.499V187.77H141.691V197.367ZM138.556 195.072V189.856H25.078V195.072H138.556ZM2.92575 197.367H21.7343V187.77H2.92575V197.367ZM24.869 184.432V186.518H138.347V184.432H151.513V130.604H148.796V175.878H145.661V130.604H140.228V161.899H137.093V128.518H131.242V176.086H128.107V128.518H122.673V162.108H119.539V128.518H113.687V176.086H110.552V128.518H105.119V162.108H101.984V128.518H96.1324V176.086H92.9976V128.518H87.5641V162.108H84.4293V128.518H78.5778V176.086H75.4431V128.518H70.0095V162.108H66.8747V128.518H61.0232V176.086H57.8884V128.518H52.4549V162.108H49.3201V128.518H43.4686V176.086H40.3338V128.518H34.9002V162.108H31.7655V128.518H25.9139V176.086H22.7792V130.604H17.3456V161.899H14.2109V130.604H11.4941V184.432H24.869ZM138.556 119.964H25.078V125.388H138.556V119.964ZM2.92575 127.475H21.7343V117.878H2.92575V127.475ZM72.3083 56.5396L8.15033 114.748H24.869V116.835H138.347V114.748H155.066L90.9078 56.9568C90.2809 61.5468 86.3102 64.8849 81.5035 64.8849C76.9059 64.8849 72.9352 61.1295 72.3083 56.5396ZM81.7126 61.7554C85.2653 61.7554 87.982 58.8345 87.982 55.4964C87.982 51.9496 85.0563 49.2374 81.7126 49.2374C78.1598 49.2374 75.4431 52.1583 75.4431 55.4964C75.4431 58.8345 78.1598 61.7554 81.7126 61.7554ZM79.4137 46.1079C80.0406 45.8993 80.8766 45.8993 81.7126 45.8993C82.5485 45.8993 83.3844 46.1079 84.2203 46.3165V22.741H79.4137V46.1079ZM74.3981 11.6835C72.0993 11.6835 70.4274 13.5612 70.4274 15.6475C70.4274 17.9424 72.3083 19.6115 74.3981 19.6115H198.116V11.6835H74.3981ZM238.659 3.1295H201.251V21.9065H243.466L238.659 3.1295ZM214.208 25.036V30.4604H225.493V25.036H214.208ZM233.226 61.5468V39.8489C233.226 36.5108 230.509 33.7986 227.165 33.7986H210.446V49.0288H185.786C184.741 50.2806 183.905 51.741 183.487 53.4101H201.46V56.3309H183.069V61.5468C183.069 63.6331 184.741 65.5108 187.04 65.5108H229.255C231.345 65.5108 233.226 63.8417 233.226 61.5468ZM225.493 68.6403H199.37V74.6906H225.493V68.6403ZM246.183 93.8849H201.669V90.7554H246.183V84.705H219.015V81.5755H246.183V77.8201H175.128L180.353 97.8489H246.183V93.8849ZM246.183 257.036H183.905V270.388H246.183V257.036ZM253.497 273.518H176.591V286.453H253.497V273.518ZM54.7537 242.849H50.156V250.151H54.7537V242.849ZM72.7263 242.849H58.0974V253.281H47.2303V242.849H35.1092V287.079C35.7362 287.079 36.5721 287.079 37.199 287.079H43.2596V262.669H72.7263V242.849ZM66.2477 265.799H61.6501V273.101H66.2477V265.799ZM76.07 287.079V265.799H69.1735V276.23H58.3064V265.799H46.1853V287.079H116.613V258.079H101.984V268.511H91.1168V258.079H78.9958V287.079H76.07ZM99.0581 257.87H94.4605V265.173H99.0581V257.87ZM83.5934 235.129V254.741H98.8492V235.129H83.5934ZM101.775 254.741H116.613V241.18H101.775V254.741ZM127.271 216.561H122.673V223.863H127.271V216.561ZM145.034 216.561H130.406V226.993H119.539V216.561H107.417V238.05H119.956V247.439H145.034V216.561ZM137.511 250.568H132.913V257.662H137.511V250.568ZM140.646 250.568V260.791H129.779V250.568H119.956V254.741H120.165V286.87H160.708V250.568H140.646ZM269.798 60.0863H300.936V48.1942H269.798V60.0863ZM398.322 13.1439H297.592V36.7194H398.322V13.1439ZM365.93 39.6403H329.358V45.0647H365.93V39.6403ZM421.52 60.0863V48.1942H304.071V60.0863H421.52ZM300.936 63.2158H273.141V286.87H300.936V63.2158ZM388.918 241.806H372.2V286.87H368.856V241.806H352.137V287.079H388.918V241.806Z" fill="#EFEFEF"/>
</svg>
