<svg width="226" height="219" viewBox="0 0 226 219" fill="none" xmlns="http://www.w3.org/2000/svg">
<path d="M223.241 102.217H212.968L126.208 53.5816C126.639 52.2275 126.856 50.8138 126.854 49.3917C126.854 48.6535 126.563 47.9456 126.045 47.4236C125.528 46.9016 124.826 46.6083 124.095 46.6083C123.363 46.6083 122.661 46.9016 122.144 47.4236C121.626 47.9456 121.336 48.6535 121.336 49.3917C121.329 49.8535 121.284 50.314 121.204 50.7686L114.335 46.9637C113.926 46.7382 113.467 46.62 113 46.62C112.533 46.62 112.074 46.7382 111.665 46.9637L104.87 50.7686C104.789 50.314 104.745 49.8535 104.738 49.3917C104.742 47.1809 105.613 45.0615 107.161 43.4968C108.709 41.9321 110.809 41.0494 113 41.0416C113.729 41.0416 114.429 40.7504 114.946 40.2316C115.463 39.7128 115.755 39.0086 115.759 38.273V29.9229H124.021C124.675 29.9219 125.307 29.6882 125.806 29.263C126.306 28.8377 126.64 28.2482 126.751 27.5985L132.254 -5.75762C132.321 -6.15538 132.3 -6.56311 132.194 -6.95198C132.087 -7.34085 131.898 -7.70136 131.638 -8.00801C131.383 -8.32013 131.062 -8.57109 130.699 -8.74266C130.336 -8.91424 129.94 -9.00213 129.539 -8.99996H96.4609C96.0601 -9.00213 95.6638 -8.91424 95.3008 -8.74266C94.9378 -8.57109 94.6172 -8.32013 94.3623 -8.00801C94.1025 -7.70136 93.9126 -7.34085 93.8061 -6.95198C93.6995 -6.56311 93.679 -6.15538 93.746 -5.75762L99.2492 27.5985C99.3599 28.2482 99.6944 28.8377 100.194 29.263C100.693 29.6882 101.325 29.9219 101.979 29.9229H110.241V35.7709C107.132 36.4175 104.339 38.1249 102.332 40.6058C100.324 43.0866 99.2253 46.1893 99.2199 49.3917C99.217 50.8138 99.4349 52.2275 99.8656 53.5816L13.061 102.217H2.78831C2.42354 102.213 2.06161 102.282 1.72349 102.42C1.38536 102.558 1.07774 102.762 0.81843 103.021C0.55912 103.28 0.353268 103.588 0.212785 103.928C0.0723028 104.268 -2.06387e-05 104.632 4.4179e-09 105V216.217C4.4179e-09 216.955 0.290675 217.663 0.808081 218.185C1.32549 218.707 2.02724 219 2.75896 219H223.241C223.973 219 224.675 218.707 225.192 218.185C225.709 217.663 226 216.955 226 216.217V105C226 104.262 225.709 103.554 225.192 103.032C224.675 102.51 223.973 102.217 223.241 102.217ZM104.371 24.3709L99.7922 -3.43321H126.355L121.688 24.3709H104.371ZM113 52.5748L118.445 55.6247C116.948 56.9773 115.009 57.7253 113 57.7253C110.991 57.7253 109.052 56.9773 107.555 55.6247L113 52.5748ZM102.551 58.4229C103.839 59.9496 105.441 61.1759 107.245 62.0168C109.049 62.8577 111.013 63.2932 113 63.2932C114.987 63.2932 116.951 62.8577 118.755 62.0168C120.559 61.1759 122.161 59.9496 123.449 58.4229L201.58 102.217H24.4197L102.551 58.4229ZM220.482 213.433H5.51792V107.783H220.482V213.433Z" fill="#242424"/>
<path d="M13.7801 207.881H24.8013C25.533 207.881 26.2348 207.588 26.7522 207.066C27.2696 206.544 27.5603 205.836 27.5603 205.098V118.902H35.8225C36.5542 118.902 37.2559 118.609 37.7733 118.087C38.2908 117.565 38.5814 116.857 38.5814 116.119C38.5814 115.38 38.2908 114.673 37.7733 114.151C37.2559 113.629 36.5542 113.335 35.8225 113.335H24.8013C24.4371 113.333 24.076 113.404 23.7388 113.543C23.4015 113.681 23.0947 113.886 22.8357 114.144C22.5768 114.403 22.3709 114.71 22.2297 115.049C22.0886 115.388 22.0149 115.751 22.013 116.119V202.314H13.7801C13.4178 202.314 13.0591 202.387 12.7243 202.526C12.3896 202.666 12.0854 202.871 11.8293 203.13C11.5731 203.388 11.3698 203.695 11.2312 204.033C11.0925 204.37 11.0212 204.732 11.0212 205.098C11.0212 205.463 11.0925 205.825 11.2312 206.163C11.3698 206.501 11.5731 206.808 11.8293 207.066C12.0854 207.324 12.3896 207.53 12.7243 207.669C13.0591 207.809 13.4178 207.881 13.7801 207.881Z" fill="#242424"/>
<path d="M33.0782 205.098C33.0782 205.834 33.3668 206.539 33.8811 207.061C34.3953 207.582 35.0933 207.877 35.8225 207.881H46.8583C47.5875 207.877 48.2855 207.582 48.7997 207.061C49.3139 206.539 49.6026 205.834 49.6026 205.098V118.902H57.8795C58.6112 118.902 59.313 118.609 59.8304 118.087C60.3478 117.565 60.6384 116.857 60.6384 116.119C60.6384 115.38 60.3478 114.673 59.8304 114.151C59.313 113.629 58.6112 113.335 57.8795 113.335H46.8583C46.1266 113.335 45.4248 113.629 44.9074 114.151C44.39 114.673 44.0993 115.38 44.0993 116.119V202.314H35.8225C35.0933 202.318 34.3953 202.613 33.8811 203.135C33.3668 203.657 33.0782 204.362 33.0782 205.098Z" fill="#242424"/>
<path d="M55.1205 205.098C55.1205 205.836 55.4112 206.544 55.9286 207.066C56.446 207.588 57.1478 207.881 57.8795 207.881H68.974C69.7057 207.881 70.4075 207.588 70.9249 207.066C71.4423 206.544 71.733 205.836 71.733 205.098V118.902H79.9952C80.7269 118.902 81.4287 118.609 81.9461 118.087C82.4635 117.565 82.7542 116.857 82.7542 116.119C82.7542 115.38 82.4635 114.673 81.9461 114.151C81.4287 113.629 80.7269 113.335 79.9952 113.335H68.974C68.2435 113.339 67.544 113.634 67.0274 114.155C66.5108 114.676 66.2189 115.382 66.2151 116.119V202.314H57.8795C57.5172 202.314 57.1584 202.387 56.8237 202.526C56.4889 202.666 56.1848 202.871 55.9286 203.13C55.6724 203.388 55.4692 203.695 55.3305 204.033C55.1919 204.37 55.1205 204.732 55.1205 205.098Z" fill="#242424"/>
<path d="M77.1775 205.098C77.1775 205.834 77.4662 206.539 77.9804 207.061C78.4947 207.582 79.1926 207.877 79.9218 207.881H90.987C91.7162 207.877 92.4142 207.582 92.9284 207.061C93.4427 206.539 93.7313 205.834 93.7313 205.098V118.902H102.008C102.74 118.902 103.442 118.609 103.959 118.087C104.476 117.565 104.767 116.857 104.767 116.119C104.767 115.38 104.476 114.673 103.959 114.151C103.442 113.629 102.74 113.335 102.008 113.335H90.987C90.2553 113.335 89.5535 113.629 89.0361 114.151C88.5187 114.673 88.2281 115.38 88.2281 116.119V202.314H79.9218C79.1926 202.318 78.4947 202.613 77.9804 203.135C77.4662 203.657 77.1775 204.362 77.1775 205.098Z" fill="#242424"/>
<path d="M99.2199 205.098C99.2199 205.836 99.5105 206.544 100.028 207.066C100.545 207.588 101.247 207.881 101.979 207.881H113C113.731 207.877 114.43 207.583 114.947 207.062C115.463 206.541 115.755 205.835 115.759 205.098V118.902H124.021C124.753 118.902 125.455 118.609 125.972 118.087C126.489 117.565 126.78 116.857 126.78 116.119C126.78 115.38 126.489 114.673 125.972 114.151C125.455 113.629 124.753 113.335 124.021 113.335H113C112.269 113.339 111.57 113.634 111.053 114.155C110.537 114.676 110.245 115.382 110.241 116.119V202.314H101.979C101.617 202.314 101.258 202.387 100.923 202.526C100.588 202.666 100.284 202.871 100.028 203.13C99.7718 203.388 99.5685 203.695 99.4299 204.033C99.2912 204.37 99.2199 204.732 99.2199 205.098Z" fill="#242424"/>
<path d="M121.262 205.098C121.266 205.835 121.558 206.541 122.075 207.062C122.591 207.583 123.291 207.877 124.021 207.881H135.013C135.745 207.881 136.446 207.588 136.964 207.066C137.481 206.544 137.772 205.836 137.772 205.098V118.902H146.049C146.781 118.902 147.482 118.609 148 118.087C148.517 117.565 148.808 116.857 148.808 116.119C148.808 115.38 148.517 114.673 148 114.151C147.482 113.629 146.781 113.335 146.049 113.335H135.013C134.284 113.339 133.586 113.634 133.072 114.156C132.557 114.677 132.269 115.383 132.269 116.119V202.314H124.021C123.291 202.318 122.591 202.613 122.075 203.134C121.558 203.655 121.266 204.361 121.262 205.098Z" fill="#242424"/>
<path d="M143.319 205.098C143.319 205.836 143.61 206.544 144.127 207.066C144.645 207.588 145.346 207.881 146.078 207.881H157.099C157.83 207.877 158.529 207.583 159.046 207.062C159.563 206.541 159.854 205.835 159.858 205.098V118.902H168.121C168.852 118.902 169.554 118.609 170.071 118.087C170.589 117.565 170.879 116.857 170.879 116.119C170.879 115.38 170.589 114.673 170.071 114.151C169.554 113.629 168.852 113.335 168.121 113.335H157.099C156.368 113.335 155.666 113.629 155.148 114.151C154.631 114.673 154.34 115.38 154.34 116.119V202.314H146.078C145.716 202.314 145.357 202.387 145.022 202.526C144.688 202.666 144.383 202.871 144.127 203.13C143.871 203.388 143.668 203.695 143.529 204.033C143.391 204.37 143.319 204.732 143.319 205.098Z" fill="#242424"/>
<path d="M165.362 205.098C165.365 205.835 165.657 206.541 166.174 207.062C166.69 207.583 167.39 207.877 168.121 207.881H179.142C179.873 207.881 180.575 207.588 181.093 207.066C181.61 206.544 181.901 205.836 181.901 205.098V118.902H190.178C190.909 118.902 191.611 118.609 192.128 118.087C192.646 117.565 192.937 116.857 192.937 116.119C192.937 115.38 192.646 114.673 192.128 114.151C191.611 113.629 190.909 113.335 190.178 113.335H179.142C178.413 113.339 177.715 113.634 177.2 114.156C176.686 114.677 176.397 115.383 176.397 116.119V202.314H168.121C167.39 202.318 166.69 202.613 166.174 203.134C165.657 203.655 165.365 204.361 165.362 205.098Z" fill="#242424"/>
<path d="M187.419 205.098C187.419 205.836 187.709 206.544 188.227 207.066C188.744 207.588 189.446 207.881 190.178 207.881H201.199C201.929 207.877 202.629 207.583 203.145 207.062C203.662 206.541 203.954 205.835 203.958 205.098V118.902H212.22C212.952 118.902 213.653 118.609 214.171 118.087C214.688 117.565 214.979 116.857 214.979 116.119C214.979 115.38 214.688 114.673 214.171 114.151C213.653 113.629 212.952 113.335 212.22 113.335H201.199C200.467 113.335 199.765 113.629 199.248 114.151C198.73 114.673 198.44 115.38 198.44 116.119V202.314H190.178C189.815 202.314 189.456 202.387 189.122 202.526C188.787 202.666 188.483 202.871 188.227 203.13C187.97 203.388 187.767 203.695 187.629 204.033C187.49 204.37 187.419 204.732 187.419 205.098Z" fill="#242424"/>
</svg>
