<svg width="229" height="230" viewBox="0 0 229 230" fill="none" xmlns="http://www.w3.org/2000/svg">
<path d="M229 154.127V210.193C229 212.435 228.114 214.585 226.536 216.173C224.958 217.761 222.817 218.657 220.582 218.665H203.299C202.889 218.66 202.485 218.566 202.115 218.389C201.745 218.212 201.418 217.957 201.156 217.64C200.894 217.324 200.704 216.954 200.599 216.557C200.494 216.159 200.477 215.743 200.548 215.339C200.873 213.657 201.048 211.95 201.068 210.238C201.052 205.025 199.433 199.945 196.434 195.688C193.435 191.431 189.2 188.205 184.307 186.448V192.519C188.319 194.427 191.564 197.648 193.509 201.651C195.453 205.655 195.981 210.203 195.006 214.547C194.031 218.892 191.61 222.774 188.143 225.556C184.675 228.338 180.366 229.853 175.926 229.853C171.485 229.853 167.176 228.338 163.709 225.556C160.241 222.774 157.82 218.892 156.845 214.547C155.87 210.203 156.398 205.655 158.342 201.651C160.287 197.648 163.532 194.427 167.545 192.519V186.448C162.651 188.205 158.417 191.431 155.417 195.688C152.418 199.945 150.8 205.025 150.783 210.238C150.804 211.95 150.978 213.657 151.303 215.339C151.375 215.743 151.357 216.159 151.252 216.557C151.147 216.954 150.957 217.324 150.695 217.64C150.434 217.957 150.106 218.212 149.736 218.389C149.366 218.566 148.962 218.66 148.552 218.665H102.966C99.6672 218.751 96.4498 217.63 93.9151 215.511C91.3805 213.392 89.702 210.42 89.1935 207.15C88.5066 201.553 85.9849 196.343 82.0247 192.34C79.3774 189.69 76.1628 187.68 72.625 186.463V192.519C76.6373 194.427 79.8826 197.648 81.8272 201.651C83.7718 205.655 84.2998 210.203 83.3246 214.547C82.3493 218.892 79.9288 222.774 76.461 225.556C72.9932 228.338 68.6848 229.853 64.244 229.853C59.8033 229.853 55.4949 228.338 52.0271 225.556C48.5593 222.774 46.1388 218.892 45.1635 214.547C44.1882 210.203 44.7163 205.655 46.6609 201.651C48.6055 197.648 51.8508 194.427 55.8631 192.519V186.553C52.3207 187.778 49.0982 189.787 46.4336 192.429C45.8986 192.906 45.2013 193.16 44.4856 193.137C43.7698 193.114 43.0901 192.816 42.5866 192.306C42.0831 191.795 41.7942 191.11 41.7794 190.392C41.7646 189.674 42.0251 188.978 42.5071 188.447C43.2062 187.746 43.9944 187.104 44.6935 186.478V162.614H39.1012V227.196C39.1012 227.94 38.8066 228.653 38.2822 229.179C37.7578 229.705 37.0466 230 36.3051 230H2.79614C2.05457 230 1.34335 229.705 0.818985 229.179C0.294617 228.653 0 227.94 0 227.196C0 226.452 0.294617 225.739 0.818985 225.213C1.34335 224.687 2.05457 224.392 2.79614 224.392H33.4792V137.229C33.4512 136.844 33.5025 136.458 33.6299 136.094C33.7574 135.731 33.9582 135.397 34.2199 135.115C34.4816 134.833 34.7986 134.608 35.1509 134.454C35.5033 134.3 35.8835 134.22 36.2679 134.22C36.6522 134.22 37.0325 134.3 37.3848 134.454C37.7372 134.608 38.0541 134.833 38.3158 135.115C38.5775 135.397 38.7784 135.731 38.9058 136.094C39.0333 136.458 39.0846 136.844 39.0566 137.229V145.671H44.5745V47.3806C44.5745 46.6369 44.869 45.9237 45.3934 45.3978C45.9178 44.872 46.629 44.5765 47.3706 44.5765H69.6801C70.4217 44.5765 71.1329 44.872 71.6573 45.3978C72.1817 45.9237 72.4763 46.6369 72.4763 47.3806V147.311L89.9372 164.762L100.527 58.8651C100.597 58.1742 100.92 57.5338 101.434 57.0682C101.948 56.6025 102.615 56.3446 103.308 56.3445H134.036V42.3244C134.036 40.0946 134.917 37.9556 136.486 36.3761C138.056 34.7966 140.186 33.9053 142.409 33.8974H145.205V3.00839C145.177 2.62397 145.229 2.23788 145.356 1.87424C145.484 1.5106 145.684 1.17721 145.946 0.894901C146.208 0.61259 146.525 0.387417 146.877 0.233443C147.229 0.0794684 147.61 0 147.994 0C148.378 0 148.759 0.0794684 149.111 0.233443C149.463 0.387417 149.78 0.61259 150.042 0.894901C150.304 1.17721 150.505 1.5106 150.632 1.87424C150.759 2.23788 150.811 2.62397 150.783 3.00839V33.8974H153.579C155.805 33.9013 157.939 34.7909 159.511 36.3709C161.084 37.9508 161.967 40.092 161.967 42.3244V56.3743H170.341C171.08 56.3743 171.789 56.6677 172.313 57.1903C172.837 57.7129 173.133 58.4223 173.137 59.1634V155.813L202.972 145.805C203.261 145.715 203.562 145.669 203.865 145.671H220.582C222.816 145.674 224.957 146.567 226.535 148.153C228.114 149.738 229 151.887 229 154.127ZM44.5745 151.264H38.9822V156.902H44.5745V151.264ZM66.884 179.602V50.1697H61.3066V104.102C61.3066 104.846 61.012 105.559 60.4877 106.085C59.9633 106.611 59.2521 106.906 58.5105 106.906C57.7689 106.906 57.0577 106.611 56.5333 106.085C56.009 105.559 55.7144 104.846 55.7144 104.102V50.1697H50.1221V182.764C55.3351 180.136 61.1778 179.026 66.9881 179.557L66.884 179.602ZM61.3066 185.225V190.863C63.1539 190.565 65.0368 190.565 66.884 190.863V185.151C65.0647 184.957 63.23 184.957 61.4107 185.151L61.3066 185.225ZM64.1028 196.232C61.3299 196.224 58.6167 197.04 56.3069 198.578C53.997 200.117 52.1943 202.308 51.1271 204.875C50.0598 207.441 49.776 210.267 50.3115 212.996C50.8471 215.724 52.1779 218.232 54.1355 220.201C56.0931 222.171 58.5894 223.513 61.3084 224.059C64.0274 224.605 66.8466 224.329 69.4093 223.267C71.972 222.205 74.1628 220.404 75.7042 218.093C77.2457 215.781 78.0685 213.063 78.0685 210.282C78.0766 206.575 76.6249 203.015 74.0291 200.375C71.4333 197.736 67.9033 196.231 64.2069 196.188L64.1028 196.232ZM139.613 56.3743H156.375V42.3244C156.377 41.9549 156.306 41.5887 156.166 41.2467C156.027 40.9048 155.821 40.5939 155.561 40.332C155.301 40.07 154.993 39.8621 154.652 39.7203C154.312 39.5784 153.947 39.5054 153.579 39.5054H142.409C141.666 39.5094 140.955 39.8081 140.431 40.3363C139.907 40.8646 139.613 41.5793 139.613 42.3244V56.3743ZM105.271 67.6053H167.545V61.9674H105.836L105.271 67.6053ZM95.1428 168.133H101.494L117.958 131.009L112.5 125.49C112.218 125.235 111.991 124.925 111.832 124.579C111.674 124.233 111.587 123.859 111.578 123.478C111.569 123.098 111.637 122.719 111.778 122.366C111.919 122.012 112.131 121.691 112.4 121.423C112.669 121.154 112.99 120.943 113.342 120.803C113.695 120.662 114.073 120.596 114.453 120.606C114.832 120.617 115.205 120.705 115.55 120.865C115.894 121.026 116.202 121.254 116.456 121.538L130.065 135.215C130.544 135.748 130.802 136.445 130.785 137.163C130.767 137.881 130.475 138.564 129.97 139.073C129.465 139.582 128.784 139.877 128.068 139.897C127.353 139.917 126.657 139.662 126.123 139.182L122.182 135.23L107.606 168.043H136.371L145.205 165.06V151.159H136.787C136.083 151.108 135.424 150.791 134.943 150.272C134.462 149.753 134.195 149.071 134.195 148.363C134.195 147.654 134.462 146.972 134.943 146.454C135.424 145.935 136.083 145.618 136.787 145.566H156.375V114.767C156.375 114.023 156.67 113.31 157.194 112.784C157.718 112.258 158.43 111.963 159.171 111.963C159.913 111.963 160.624 112.258 161.148 112.784C161.673 113.31 161.967 114.023 161.967 114.767V148.46C161.967 148.834 161.893 149.205 161.748 149.55C161.602 149.895 161.39 150.208 161.122 150.469C160.855 150.731 160.538 150.936 160.19 151.072C159.842 151.208 159.47 151.274 159.097 151.264H150.708V163.3L167.47 157.692V73.1984H104.706L95.1428 168.133ZM72.506 168.133H85.4009L72.5804 155.246L72.506 168.133ZM175.933 196.188C173.16 196.179 170.447 196.995 168.137 198.534C165.827 200.072 164.025 202.263 162.957 204.83C161.89 207.396 161.606 210.223 162.142 212.951C162.677 215.679 164.008 218.187 165.966 220.156C167.923 222.126 170.42 223.468 173.139 224.014C175.858 224.56 178.677 224.284 181.24 223.222C183.802 222.16 185.993 220.359 187.535 218.048C189.076 215.736 189.899 213.018 189.899 210.238C189.899 206.519 188.429 202.952 185.811 200.319C183.193 197.685 179.641 196.199 175.933 196.188ZM175.933 190.595C176.869 190.601 177.804 190.676 178.729 190.818V185.151C176.871 184.932 174.995 184.932 173.137 185.151V190.833C174.062 190.685 174.996 190.605 175.933 190.595ZM223.408 162.51H217.83V179.364H223.408V162.51ZM223.408 154.127C223.408 153.373 223.111 152.649 222.582 152.113C222.053 151.577 221.334 151.271 220.582 151.264H204.326L137.709 173.636C137.42 173.726 137.12 173.771 136.817 173.77H72.5804V180.631C77.6357 182.029 82.2461 184.711 85.9661 188.417C90.8059 193.305 93.8831 199.671 94.7114 206.509C95.0795 208.419 96.1172 210.134 97.6367 211.343C99.1563 212.552 101.057 213.176 102.996 213.101H145.339C145.25 212.107 145.205 211.167 145.205 210.282C145.205 202.11 148.443 194.272 154.205 188.493C159.968 182.714 167.784 179.468 175.933 179.468C184.083 179.468 191.898 182.714 197.661 188.493C203.423 194.272 206.661 202.11 206.661 210.282C206.661 211.197 206.616 212.137 206.527 213.101H220.582C220.955 213.099 221.324 213.024 221.668 212.879C222.012 212.734 222.324 212.522 222.586 212.256C222.849 211.99 223.056 211.675 223.197 211.329C223.338 210.983 223.41 210.612 223.408 210.238V184.972H215.034C214.294 184.968 213.585 184.671 213.061 184.146C212.538 183.621 212.242 182.91 212.238 182.168V159.706C212.238 158.962 212.533 158.249 213.057 157.723C213.581 157.197 214.293 156.902 215.034 156.902H223.408V154.127Z" fill="#242424"/>
<path d="M136.787 201.826H103.308C102.566 201.826 101.855 202.121 101.331 202.647C100.807 203.173 100.512 203.886 100.512 204.63C100.512 205.373 100.807 206.086 101.331 206.612C101.855 207.138 102.566 207.434 103.308 207.434H136.787C137.154 207.434 137.518 207.361 137.857 207.22C138.197 207.079 138.505 206.873 138.764 206.612C139.024 206.352 139.23 206.043 139.371 205.703C139.511 205.362 139.583 204.998 139.583 204.63C139.583 204.261 139.511 203.897 139.371 203.557C139.23 203.216 139.024 202.907 138.764 202.647C138.505 202.386 138.197 202.18 137.857 202.039C137.518 201.898 137.154 201.826 136.787 201.826Z" fill="#242424"/>
<path d="M136.787 190.595H114.478C114.094 190.566 113.709 190.618 113.347 190.746C112.984 190.874 112.652 191.075 112.37 191.337C112.089 191.6 111.864 191.918 111.711 192.271C111.557 192.624 111.478 193.006 111.478 193.391C111.478 193.777 111.557 194.158 111.711 194.511C111.864 194.865 112.089 195.182 112.37 195.445C112.652 195.707 112.984 195.909 113.347 196.036C113.709 196.164 114.094 196.216 114.478 196.188H136.787C137.171 196.216 137.556 196.164 137.918 196.036C138.281 195.909 138.613 195.707 138.895 195.445C139.176 195.182 139.401 194.865 139.554 194.511C139.708 194.158 139.787 193.777 139.787 193.391C139.787 193.006 139.708 192.624 139.554 192.271C139.401 191.918 139.176 191.6 138.895 191.337C138.613 191.075 138.281 190.874 137.918 190.746C137.556 190.618 137.171 190.566 136.787 190.595Z" fill="#242424"/>
</svg>
