<svg width="91" height="91" viewBox="0 0 91 91" fill="none" xmlns="http://www.w3.org/2000/svg">
<path d="M90.2909 53.3591L45.9136 35.6318C45.6182 35.5136 45.3227 35.5136 45.0864 35.6318L0.709091 53.3591C0.295455 53.5364 0 53.95 0 54.3636C0 61.5727 6.97273 67.3636 13.7091 72.9773C17.4318 76.05 21.2136 79.2409 23.6955 82.4909C24.05 82.9636 24.7591 83.0818 25.2318 82.7273C25.7045 82.3727 25.8227 81.6636 25.4682 81.1909C22.8682 77.7045 18.9091 74.4545 15.1273 71.2636C9.04091 66.1818 2.71818 60.9227 2.24545 55.1318L44.3773 38.2909V81.1318C44.3773 81.7227 44.85 82.2545 45.5 82.2545C46.15 82.2545 46.6227 81.7818 46.6227 81.1318V38.2318L88.7545 55.0727C88.2818 60.9227 81.9591 66.1818 75.8727 71.2045C72.0909 74.3955 68.1318 77.6455 65.5318 81.1318C65.1773 81.6045 65.2364 82.3136 65.7682 82.6682C66.2409 83.0227 66.95 82.9636 67.3045 82.4318C69.7864 79.1818 73.6273 75.9909 77.2909 72.9182C84.0273 67.3636 91 61.5727 91 54.3636C91 53.95 90.7045 53.5364 90.2909 53.3591Z" fill="#F4EAEC"/>
<path d="M89.8773 88.7545C87.3955 88.7545 85.0909 87.5727 83.6137 85.5636C82.3728 83.9682 79.6546 83.9091 78.3546 85.5636C76.9364 87.5727 74.5728 88.7545 72.0909 88.7545C69.6091 88.7545 67.3046 87.5727 65.8273 85.5636C64.5864 83.9682 61.8682 83.9091 60.5682 85.5636C59.15 87.5727 56.7864 88.7545 54.3046 88.7545C51.8228 88.7545 49.5182 87.5727 48.0409 85.5636C46.8 83.9682 44.0818 83.9091 42.7818 85.5636C41.3637 87.5727 39 88.7545 36.5182 88.7545C34.0364 88.7545 31.7318 87.5727 30.2546 85.5636C29.0137 83.9682 26.2955 83.9091 24.9955 85.5636C23.5773 87.5727 21.2137 88.7545 18.7318 88.7545C16.25 88.7545 13.9455 87.5727 12.4682 85.5636C11.2273 83.9682 8.50912 83.9091 7.20912 85.5636C5.79094 87.5727 3.4273 88.7545 0.945481 88.7545C0.354572 88.7545 -0.177246 89.2273 -0.177246 89.8773C-0.177246 90.4682 0.295481 91 0.945481 91C4.13639 91 7.15003 89.4636 8.98184 86.9227C9.33639 86.3909 10.3409 86.45 10.6364 86.9227C12.4682 89.4636 15.4818 91 18.6728 91C21.8637 91 24.8773 89.4636 26.7091 86.9227C27.0637 86.3909 28.0682 86.45 28.3637 86.9227C30.1955 89.4636 33.2091 91 36.4 91C39.5909 91 42.6046 89.4636 44.4364 86.9227C44.7909 86.3909 45.7955 86.45 46.0909 86.9227C47.9228 89.4636 50.9364 91 54.1273 91C57.3182 91 60.3318 89.4636 62.1637 86.9227C62.5182 86.3909 63.5228 86.45 63.8182 86.9227C65.65 89.4636 68.6637 91 71.8546 91C75.0455 91 78.0591 89.4636 79.8909 86.9227C80.2455 86.3909 81.25 86.45 81.5455 86.9227C83.3773 89.4636 86.3909 91 89.5819 91C90.1728 91 90.7046 90.5273 90.7046 89.8773C91 89.2864 90.5273 88.7545 89.8773 88.7545Z" fill="#F4EAEC"/>
<path d="M56.6092 0H34.391C32.5592 0 31.0819 1.47727 31.0819 3.30909V8.86364H5.55461C4.9637 8.86364 4.43188 9.33636 4.43188 9.98636V47.8045C4.43188 48.3955 4.90461 48.9273 5.55461 48.9273C6.14552 48.9273 6.67734 48.4545 6.67734 47.8045V37.7591H24.4046V39.8273C24.4046 40.4182 24.8773 40.95 25.5273 40.95C26.1182 40.95 26.6501 40.4773 26.6501 39.8273V37.7591H33.5046C34.0955 37.7591 34.6273 37.2864 34.6273 36.6364C34.6273 36.0455 34.1546 35.5136 33.5046 35.5136H26.6501V24.4045H44.3773V31.7909C44.3773 32.3818 44.8501 32.9136 45.5001 32.9136C46.1501 32.9136 46.6228 32.4409 46.6228 31.7909V24.4045H64.3501V35.5136H57.4955C56.9046 35.5136 56.3728 35.9864 56.3728 36.6364C56.3728 37.2273 56.8455 37.7591 57.4955 37.7591H64.3501V39.8273C64.3501 40.4182 64.8228 40.95 65.4728 40.95C66.0637 40.95 66.5955 40.4773 66.5955 39.8273V37.7591H84.3228V47.8636C84.3228 48.4545 84.7955 48.9864 85.4455 48.9864C86.0364 48.9864 86.5683 48.5136 86.5683 47.8636V10.0455C86.5683 9.45455 86.0955 8.92273 85.4455 8.92273H59.9183V3.30909C59.9183 1.47727 58.441 0 56.6092 0ZM24.4046 35.5136H6.67734V24.4045H24.4046V35.5136ZM24.4046 22.2182H6.67734V11.1091H24.4046V22.2182ZM66.5955 11.1091H84.3228V22.2182H66.5955V11.1091ZM66.5955 24.4045H84.3228V35.5136H66.5955V24.4045ZM44.3773 22.2182H26.6501V11.1091H44.3773V22.2182ZM33.2682 8.86364V3.30909C33.2682 2.71818 33.741 2.18636 34.391 2.18636H56.6092C57.2001 2.18636 57.7319 2.65909 57.7319 3.30909V8.86364H33.2682ZM64.3501 11.1091V22.2182H46.6228V11.1091H64.3501Z" fill="#F4EAEC"/>
<path d="M35.8681 60.45C38.0545 59.6818 38.9409 56.7273 37.8772 53.7137C36.8136 50.7 34.2727 48.9864 32.0863 49.7546C29.9 50.5227 29.0136 53.4773 30.0772 56.4909C31.0818 59.3273 33.5045 61.2773 35.8681 60.45ZM32.8545 51.8227C33.7409 51.5273 35.159 52.5318 35.809 54.4227C36.459 56.3137 35.9863 58.0273 35.159 58.3227C34.2727 58.6182 32.8545 57.6137 32.2045 55.7228C31.4954 53.8318 31.9681 52.1182 32.8545 51.8227Z" fill="#F4EAEC"/>
<path d="M60.9226 56.4909C61.9863 53.4773 61.0999 50.5227 58.9135 49.7546C56.7272 48.9864 54.1863 50.7 53.1226 53.7137C52.059 56.7273 52.9454 59.6818 55.1317 60.45C57.4954 61.2773 59.9181 59.3273 60.9226 56.4909ZM55.1908 54.4227C55.8408 52.5318 57.3181 51.5273 58.1454 51.8227C59.0317 52.1182 59.5045 53.8318 58.7954 55.7228C58.1454 57.6137 56.7272 58.6182 55.8408 58.3227C55.0135 58.0273 54.4817 56.3727 55.1908 54.4227Z" fill="#F4EAEC"/>
</svg>
