<svg width="161" height="160" viewBox="0 0 161 160" fill="none" xmlns="http://www.w3.org/2000/svg">
<path d="M114.991 7.75025C115.39 7.92904 115.748 8.18563 116.046 8.50483C116.343 8.82402 116.573 9.19934 116.722 9.60855C116.871 10.0178 116.936 10.4525 116.913 10.8871C116.89 11.3218 116.779 11.7473 116.588 12.1387C116.397 12.5301 116.128 12.8793 115.799 13.1657C115.47 13.452 115.086 13.6697 114.671 13.8058C114.255 13.9419 113.816 13.9937 113.381 13.9581C112.945 13.9225 112.52 13.8002 112.133 13.5985C111.161 13.0173 110.146 12.5122 109.096 12.0875C108.106 11.6514 107.092 11.2716 106.059 10.9499C105.66 10.8036 105.294 10.5801 104.983 10.2921C104.671 10.0042 104.42 9.65755 104.244 9.27234C104.068 8.88714 103.97 8.47099 103.957 8.04801C103.943 7.62502 104.014 7.20359 104.166 6.80813C104.499 6.02985 105.112 5.40345 105.886 5.05163C106.659 4.6998 107.536 4.64792 108.346 4.90612C109.293 5.29719 110.436 5.84824 111.561 6.23931C112.687 6.63037 113.848 7.35918 114.991 7.75025ZM116.509 44.1906C123.618 51.2873 128.453 60.3209 130.405 70.1505C132.358 79.9801 131.339 90.1649 127.478 99.4187C123.617 108.673 117.087 116.58 108.712 122.144C100.338 127.707 90.4941 130.676 80.4249 130.676C70.3557 130.676 60.5123 127.707 52.1377 122.144C43.7632 116.58 37.2331 108.673 33.372 99.4187C29.511 90.1649 28.4923 79.9801 30.4444 70.1505C32.3966 60.3209 37.2321 51.2873 44.3404 44.1906C53.9228 34.6905 66.8982 29.3562 80.4249 29.3562C93.9516 29.3562 106.927 34.6905 116.509 44.1906ZM37.6951 76.6848H56.1125C56.4866 76.7002 56.8524 76.5724 57.1348 76.3278C57.4172 76.0832 57.5947 75.7402 57.6309 75.3694C57.8229 68.8165 58.6545 62.2977 60.114 55.9049C60.1585 55.7134 60.1642 55.5149 60.1306 55.3211C60.097 55.1274 60.0248 54.9422 59.9183 54.7766C59.8118 54.611 59.6731 54.4683 59.5104 54.3568C59.3476 54.2453 59.1642 54.1673 58.9707 54.1273C55.2892 53.3606 51.6973 52.2169 48.2525 50.7144C47.9543 50.5682 47.6151 50.5273 47.2904 50.5984C46.9658 50.6694 46.6751 50.8482 46.4661 51.1054C40.6486 57.8012 37.0052 66.0931 36.0159 74.8895C35.9615 75.1106 35.9606 75.3415 36.0133 75.563C36.066 75.7846 36.1707 75.9906 36.3189 76.1641C36.4671 76.3376 36.6545 76.4736 36.8658 76.5611C37.0771 76.6485 37.3062 76.6848 37.5343 76.667L37.6951 76.6848ZM95.2339 76.6848C95.4381 76.704 95.6441 76.6782 95.8371 76.609C96.0301 76.5399 96.2053 76.4292 96.3504 76.2849C96.4954 76.1405 96.6067 75.9661 96.6761 75.7741C96.7456 75.582 96.7716 75.3771 96.7523 75.1739C96.5813 68.8725 95.7551 62.6058 94.2871 56.4737C94.2016 56.0873 93.9655 55.7504 93.6305 55.537C93.2956 55.3237 92.8892 55.2514 92.5007 55.3361C84.4316 56.2454 76.289 56.3109 68.2062 55.5316C68.0137 55.4872 67.8142 55.4816 67.6195 55.515C67.4248 55.5485 67.2388 55.6203 67.0723 55.7263C66.9059 55.8323 66.7625 55.9703 66.6504 56.1322C66.5384 56.2941 66.46 56.4767 66.4198 56.6693C64.9511 62.7349 64.1249 68.9369 63.9546 75.1739C63.7581 76.116 64.5263 76.6848 65.4731 76.6848H95.2339ZM104.737 76.6848H123.155C123.377 76.6822 123.596 76.6322 123.797 76.5383C123.998 76.4443 124.177 76.3085 124.321 76.14C124.465 75.9715 124.57 75.7743 124.631 75.5617C124.692 75.349 124.706 75.1258 124.673 74.9072C123.556 65.7966 119.645 57.2497 113.473 50.43C113.258 50.1421 112.943 49.9444 112.59 49.8753C112.236 49.8063 111.869 49.871 111.561 50.0567C108.475 51.7326 105.15 52.9314 101.701 53.6118C101.311 53.7314 100.979 53.9896 100.768 54.3371C100.557 54.6846 100.482 55.0971 100.557 55.4961C102.17 62.0042 103.062 68.6682 103.219 75.3694C103.255 75.7402 103.433 76.0832 103.715 76.3278C103.997 76.5724 104.363 76.7002 104.737 76.6848ZM123.155 83.1019H104.737C104.343 83.127 103.971 83.2943 103.692 83.5724C103.412 83.8505 103.244 84.2203 103.219 84.6128C103.04 91.2068 102.148 97.7625 100.557 104.166C100.513 104.371 100.514 104.582 100.558 104.786C100.603 104.991 100.69 105.183 100.815 105.352C100.94 105.52 101.1 105.659 101.283 105.761C101.467 105.864 101.67 105.926 101.879 105.944C105.382 106.676 108.771 107.871 111.954 109.499C112.264 109.668 112.623 109.724 112.969 109.655C113.316 109.587 113.627 109.4 113.848 109.126C119.853 102.28 123.628 93.782 124.673 84.755C124.708 84.3191 124.567 83.8874 124.283 83.5542C123.998 83.2211 123.593 83.0137 123.155 82.9774V83.1019ZM65.616 83.1019C65.3889 83.088 65.1617 83.1269 64.9523 83.2156C64.743 83.3042 64.5573 83.4402 64.4099 83.6127C64.2626 83.7852 64.1576 83.9895 64.1034 84.2094C64.0492 84.4293 64.0472 84.6587 64.0975 84.8795C64.2799 91.1154 65.1059 97.3162 66.5627 103.384C66.6029 103.577 66.6813 103.759 66.7933 103.921C66.9054 104.083 67.0488 104.221 67.2153 104.327C67.3817 104.433 67.5677 104.505 67.7624 104.538C67.9571 104.572 68.1566 104.566 68.3491 104.522C76.4299 103.775 84.5628 103.775 92.6437 104.522C92.8361 104.566 93.0356 104.572 93.2303 104.538C93.425 104.505 93.6111 104.433 93.7775 104.327C93.9439 104.221 94.0874 104.083 94.1994 103.921C94.3115 103.759 94.3899 103.577 94.43 103.384C95.8987 97.3184 96.7249 91.1164 96.8952 84.8795C96.9284 84.6608 96.9141 84.4377 96.8533 84.225C96.7925 84.0124 96.6866 83.8151 96.5427 83.6467C96.3988 83.4782 96.2202 83.3424 96.0191 83.2484C95.818 83.1544 95.599 83.1045 95.3768 83.1019H65.616ZM56.1125 83.1019H37.6951C37.472 83.1015 37.2514 83.1495 37.0488 83.2425C36.8462 83.3355 36.6664 83.4713 36.5219 83.6405C36.3774 83.8097 36.2716 84.0082 36.212 84.2221C36.1524 84.4361 36.1403 84.6604 36.1767 84.8795C37.0728 93.8506 40.7926 102.311 46.8055 109.055C47.0176 109.346 47.3328 109.546 47.6874 109.615C48.0421 109.685 48.41 109.618 48.7169 109.428C51.9588 107.795 55.4171 106.628 58.9885 105.962C59.3876 105.857 59.7301 105.601 59.9434 105.25C60.1568 104.898 60.2244 104.478 60.1318 104.077C58.6664 97.6851 57.8288 91.1663 57.6309 84.6128C57.6057 84.2203 57.4376 83.8505 57.1581 83.5724C56.8786 83.2943 56.5069 83.127 56.1125 83.1019ZM105.434 113.765C103.589 113.078 101.68 112.572 99.7355 112.254C99.3589 112.164 98.9624 112.209 98.616 112.381C98.2696 112.554 97.9954 112.842 97.842 113.196C97.0917 115.081 96.3236 116.965 95.3768 118.867C95.2231 119.14 95.162 119.455 95.2023 119.766C95.2426 120.076 95.3823 120.365 95.6007 120.591C95.8192 120.816 96.1047 120.965 96.415 121.017C96.7254 121.068 97.044 121.018 97.3239 120.875C100.368 119.754 103.246 118.229 105.881 116.343C106.085 116.173 106.241 115.953 106.333 115.704C106.425 115.455 106.449 115.187 106.404 114.926C106.359 114.665 106.245 114.42 106.075 114.216C105.905 114.013 105.684 113.857 105.434 113.765ZM89.8748 110.743C83.552 110.174 77.1906 110.174 70.8679 110.743C70.623 110.748 70.3831 110.814 70.1698 110.933C69.9564 111.053 69.7762 111.224 69.6453 111.43C69.5144 111.636 69.4368 111.871 69.4194 112.114C69.4021 112.357 69.4456 112.601 69.546 112.823C75.9947 127.932 84.5514 128.11 91.1967 112.823C91.2695 112.6 91.2919 112.363 91.2625 112.13C91.233 111.897 91.1523 111.673 91.0261 111.475C90.8999 111.276 90.7313 111.108 90.5324 110.981C90.3334 110.855 90.1089 110.774 89.8748 110.743ZM61.0607 111.988C59.1493 112.361 57.0593 112.93 55.1657 113.498C54.9095 113.596 54.6843 113.76 54.5133 113.974C54.3424 114.187 54.2321 114.442 54.1938 114.713C54.1555 114.983 54.1907 115.259 54.2956 115.511C54.4006 115.763 54.5715 115.983 54.7906 116.147C57.4859 118.091 60.4219 119.68 63.5259 120.875C63.8095 120.999 64.1249 121.031 64.4277 120.967C64.7305 120.903 65.0055 120.746 65.2144 120.519C65.4232 120.291 65.5552 120.005 65.592 119.699C65.6288 119.393 65.5684 119.083 65.4195 118.813C64.4252 116.908 63.5366 114.95 62.7578 112.947C62.7144 112.762 62.6314 112.587 62.5145 112.436C62.3977 112.285 62.2496 112.161 62.0802 112.072C61.9109 111.982 61.7243 111.93 61.533 111.919C61.3418 111.907 61.1502 111.937 60.9714 112.005L61.0607 111.988ZM54.9692 46.6615C56.9708 47.2233 59.0051 47.6626 61.0607 47.9769C61.2396 48.0454 61.4311 48.075 61.6224 48.0635C61.8136 48.0521 62.0002 48 62.1696 47.9107C62.3389 47.8214 62.487 47.697 62.6039 47.5459C62.7207 47.3948 62.8037 47.2205 62.8471 47.0348C63.5771 45.0125 64.4671 43.051 65.5088 41.1688C65.6802 40.8909 65.7542 40.5644 65.7194 40.2402C65.6846 39.916 65.5429 39.6125 65.3164 39.3769C65.0899 39.1413 64.7913 38.9871 64.4674 38.9382C64.1435 38.8893 63.8124 38.9486 63.5259 39.1068C60.3968 40.3737 57.4044 41.9519 54.5941 43.8174C54.391 44.0104 54.2366 44.2483 54.1432 44.5118C54.0498 44.7753 54.0202 45.057 54.0568 45.3341C54.0933 45.6111 54.195 45.8757 54.3535 46.1063C54.5121 46.337 54.723 46.5272 54.9692 46.6615ZM70.9215 49.2923C77.2496 49.802 83.611 49.7425 89.9284 49.1145C90.1658 49.0971 90.3954 49.0223 90.5973 48.8966C90.7991 48.7709 90.9671 48.5982 91.0868 48.3933C91.2064 48.1885 91.2741 47.9577 91.2839 47.721C91.2937 47.4843 91.2454 47.2487 91.1431 47.0348C84.6943 31.9253 76.1376 32.1031 69.7067 47.2125C69.6063 47.4349 69.5629 47.6785 69.5802 47.9216C69.5975 48.1648 69.6751 48.3999 69.8061 48.6059C69.937 48.8119 70.1172 48.9824 70.3306 49.1022C70.5439 49.222 70.7837 49.2873 71.0286 49.2923H70.9215ZM99.6105 47.6036C101.494 47.2976 103.338 46.7911 105.112 46.0927C105.365 45.9893 105.585 45.8208 105.751 45.6045C105.916 45.3882 106.021 45.132 106.053 44.8621C106.086 44.5923 106.046 44.3187 105.937 44.0694C105.828 43.8202 105.655 43.6043 105.434 43.4441C102.881 41.7361 100.164 40.2833 97.3239 39.1068C97.04 38.9703 96.7194 38.9286 96.4098 38.9879C96.1002 39.0472 95.8181 39.2043 95.6054 39.436C95.3927 39.6676 95.2607 39.9613 95.2292 40.2735C95.1977 40.5857 95.2682 40.8997 95.4304 41.1688C96.3698 42.9451 97.1932 44.7798 97.8956 46.6615C97.944 46.8442 98.03 47.015 98.148 47.1631C98.266 47.3111 98.4136 47.4333 98.5814 47.5218C98.7493 47.6103 98.9337 47.6632 99.1231 47.6773C99.3125 47.6914 99.5028 47.6663 99.6819 47.6036H99.6105ZM45.8588 152.232C45.1052 151.84 44.5349 151.171 44.2689 150.367C44.003 149.563 44.0622 148.688 44.4342 147.927C44.8061 147.166 45.4614 146.579 46.261 146.291C47.0606 146.003 47.9416 146.036 48.7169 146.384C50.6913 147.376 52.7189 148.261 54.7906 149.032C58.7742 150.348 56.5769 156.392 52.504 155.076C50.2354 154.134 47.9488 153.174 45.8588 152.232ZM137.213 36.6893C137.45 37.4931 137.357 38.3576 136.953 39.0927C136.549 39.8277 135.869 40.3731 135.061 40.6088C134.253 40.8445 133.384 40.7513 132.646 40.3496C131.907 39.9479 131.359 39.2706 131.122 38.4668L126.388 21.0821C126.211 20.5265 126.193 19.9326 126.337 19.3674C126.48 18.8023 126.78 18.2883 127.202 17.8836C127.623 17.4788 128.15 17.1993 128.723 17.0766C129.296 16.9539 129.891 16.9929 130.443 17.1892L147.717 21.722C151.897 22.8597 150.182 29.0812 146.199 27.9613L142.626 27.0014C141.876 26.8237 141.304 27.5703 141.876 28.1391C154.43 42.9386 161.19 61.7525 160.911 81.1179C160.632 100.483 153.333 119.097 140.357 133.532C139.762 134.118 138.966 134.458 138.129 134.482C137.291 134.507 136.476 134.214 135.848 133.663C135.219 133.112 134.824 132.344 134.743 131.515C134.662 130.685 134.9 129.856 135.409 129.195C147.175 116.193 153.896 99.4428 154.365 81.9529C154.833 64.463 149.018 47.3801 137.964 33.774C137.852 33.6201 137.687 33.5129 137.501 33.4734C137.314 33.4338 137.12 33.4647 136.955 33.5601C136.79 33.6554 136.666 33.8084 136.609 33.9892C136.551 34.17 136.563 34.3658 136.642 34.5384L137.213 36.6893ZM120.297 149.406C119.937 149.669 119.526 149.854 119.089 149.947C118.652 150.04 118.201 150.039 117.765 149.945C117.329 149.851 116.917 149.665 116.559 149.401C116.2 149.136 115.902 148.798 115.685 148.41C115.468 148.022 115.336 147.593 115.298 147.15C115.261 146.707 115.318 146.262 115.467 145.843C115.616 145.424 115.853 145.042 116.162 144.721C116.471 144.401 116.845 144.15 117.26 143.984C119.743 142.473 122.011 140.962 124.298 139.256C124.978 138.756 125.829 138.545 126.665 138.67C127.501 138.795 128.253 139.246 128.755 139.922C129.257 140.599 129.469 141.446 129.343 142.278C129.218 143.11 128.765 143.858 128.085 144.357C125.608 146.231 123.006 147.935 120.297 149.459V149.406ZM97.0738 158.294C92.8937 159.058 91.554 152.819 95.7341 152.072C98.1992 151.503 100.664 150.739 102.88 149.992C106.863 148.855 108.953 154.898 104.97 156.036C102.41 156.922 99.7967 157.647 97.1453 158.205L97.0738 158.294ZM70.85 159.431C70.4105 159.401 69.9818 159.282 69.5898 159.082C69.1979 158.882 68.8509 158.605 68.5699 158.267C68.2889 157.929 68.0798 157.539 67.9553 157.118C67.8308 156.698 67.7935 156.256 67.8456 155.821C67.8977 155.386 68.0381 154.966 68.2584 154.586C68.4787 154.206 68.7742 153.875 69.1271 153.613C69.4799 153.35 69.8826 153.162 70.3108 153.059C70.7391 152.956 71.1838 152.941 71.6181 153.014C74.1305 153.396 76.6686 153.587 79.2102 153.583C83.3903 153.583 83.1938 160 79.0316 160C76.2945 159.996 73.561 159.806 70.85 159.431ZM23.4577 123.346C23.2209 122.519 23.324 121.632 23.7444 120.88C24.1648 120.128 24.8682 119.574 25.6996 119.338C26.5311 119.102 27.4226 119.205 28.1781 119.623C28.9335 120.041 29.491 120.741 29.7279 121.569L34.4618 138.758C34.6084 139.316 34.6057 139.903 34.454 140.46C34.3022 141.017 34.0066 141.524 33.5966 141.932C33.1866 142.34 32.6765 142.634 32.1169 142.785C31.5573 142.936 30.9677 142.939 30.4067 142.793L12.9361 138.26C8.95247 137.123 10.6674 130.901 14.7224 132.021L18.2952 132.981C18.463 133.016 18.6379 132.997 18.7942 132.927C18.9505 132.857 19.08 132.738 19.1639 132.589C19.2477 132.44 19.2814 132.268 19.2601 132.099C19.2388 131.93 19.1636 131.771 19.0454 131.648C6.49123 116.886 -0.270791 98.1023 0.00830701 78.7661C0.287405 59.4298 7.58876 40.8472 20.5638 26.4504C20.85 26.1399 21.1949 25.8886 21.5787 25.7107C21.9625 25.5329 22.3778 25.432 22.8008 25.4138C23.2237 25.3957 23.6462 25.4606 24.044 25.6049C24.4417 25.7492 24.8071 25.9701 25.1191 26.2549C25.4311 26.5396 25.6836 26.8828 25.8624 27.2647C26.0411 27.6467 26.1425 28.0599 26.1607 28.4808C26.179 28.9017 26.1137 29.3221 25.9687 29.7179C25.8237 30.1137 25.6018 30.4772 25.3156 30.7877C13.5673 43.8039 6.86879 60.5625 6.42349 78.0523C5.97819 95.5421 11.8153 112.617 22.8861 126.208C23.2612 126.777 24.4045 126.404 24.208 125.444L23.4577 123.346ZM40.3568 10.6655C40.7049 10.343 41.1209 10.1018 41.5746 9.95959C42.0282 9.81735 42.508 9.7776 42.979 9.84324C43.4501 9.90888 43.9004 10.0783 44.2974 10.339C44.6943 10.5998 45.0277 10.9454 45.2734 11.3506C45.5191 11.7559 45.6709 12.2106 45.7177 12.6815C45.7644 13.1525 45.705 13.628 45.5437 14.0732C45.3825 14.5185 45.1234 14.9223 44.7854 15.2553C44.4475 15.5883 44.0391 15.8421 43.5901 15.9982C41.107 17.5092 38.8383 19.0201 36.5518 20.7266C35.8719 21.2263 35.0204 21.4368 34.1846 21.3118C33.3487 21.1868 32.597 20.7365 32.0948 20.06C31.5926 19.3835 31.3811 18.5361 31.5067 17.7044C31.6323 16.8727 32.0848 16.1247 32.7647 15.6249C35.1789 13.8017 37.7155 12.1447 40.3568 10.6655ZM63.7045 1.77758C67.8846 1.01322 69.2244 7.25253 65.0443 7.99911C62.5791 8.56794 60.114 9.3323 57.6309 10.0789C56.8138 10.2896 55.9465 10.1776 55.2105 9.76639C54.4745 9.35519 53.9269 8.67666 53.6822 7.8728C53.4376 7.06894 53.5149 6.20206 53.8979 5.45362C54.281 4.70518 54.9401 4.13318 55.7374 3.85735C58.399 3.09299 61.0965 2.34641 63.7045 1.77758ZM89.9284 0.639929C90.751 0.778901 91.4884 1.22724 91.988 1.89217C92.4876 2.5571 92.7112 3.38771 92.6125 4.21213C92.5139 5.03655 92.1004 5.79166 91.4578 6.3212C90.8152 6.85074 89.9926 7.11418 89.1602 7.05699C86.647 6.68234 84.1095 6.49222 81.5682 6.48817C77.3881 6.41706 77.3881 0 81.7468 0C84.4839 0.00365142 87.2174 0.193704 89.9284 0.568826V0.639929Z" fill="#BF0005"/>
</svg>
