<svg width="217" height="214" viewBox="0 0 217 214" fill="none" xmlns="http://www.w3.org/2000/svg">
<path d="M214.351 102.339H204.487L121.182 55.8368C121.595 54.5421 121.805 53.1904 121.802 51.8307C121.802 51.1249 121.523 50.4479 121.026 49.9488C120.529 49.4498 119.855 49.1694 119.153 49.1694C118.45 49.1694 117.776 49.4498 117.28 49.9488C116.783 50.4479 116.504 51.1249 116.504 51.8307C116.497 52.2722 116.455 52.7125 116.377 53.1472L109.782 49.5091C109.389 49.2935 108.948 49.1806 108.5 49.1806C108.052 49.1806 107.611 49.2935 107.218 49.5091L100.694 53.1472C100.616 52.7125 100.573 52.2722 100.567 51.8307C100.571 49.7168 101.407 47.6904 102.894 46.1943C104.38 44.6983 106.396 43.8543 108.5 43.8468C109.2 43.8468 109.872 43.5683 110.368 43.0723C110.865 42.5763 111.145 41.903 111.149 41.1996V33.2157H119.082C119.71 33.2148 120.317 32.9914 120.796 32.5848C121.276 32.1782 121.597 31.6145 121.703 30.9933L126.987 -0.899833C127.052 -1.28014 127.032 -1.66999 126.93 -2.0418C126.827 -2.41362 126.645 -2.75832 126.395 -3.05152C126.151 -3.34995 125.843 -3.5899 125.494 -3.75395C125.146 -3.918 124.765 -4.00204 124.38 -3.99996H92.6195C92.2347 -4.00204 91.8541 -3.918 91.5056 -3.75395C91.1571 -3.5899 90.8493 -3.34995 90.6045 -3.05152C90.355 -2.75832 90.1727 -2.41362 90.0704 -2.0418C89.9681 -1.66999 89.9485 -1.28014 90.0127 -0.899833L95.2968 30.9933C95.4031 31.6145 95.7242 32.1782 96.2037 32.5848C96.6832 32.9914 97.2902 33.2148 97.9177 33.2157H105.851V38.8073C102.866 39.4255 100.184 41.0581 98.2564 43.4301C96.329 45.8021 95.2739 48.7687 95.2686 51.8307C95.2659 53.1904 95.4751 54.5421 95.8886 55.8368L12.5409 102.339H2.67727C2.32702 102.335 1.97952 102.401 1.65485 102.533C1.33019 102.665 1.03482 102.861 0.785838 103.108C0.536854 103.356 0.3392 103.65 0.204312 103.975C0.0694235 104.3 -1.98168e-05 104.648 4.24197e-09 105V211.339C4.24197e-09 212.045 0.2791 212.721 0.775901 213.221C1.2727 213.72 1.94651 214 2.64909 214H214.351C215.053 214 215.727 213.72 216.224 213.221C216.721 212.721 217 212.045 217 211.339V105C217 104.294 216.721 103.617 216.224 103.118C215.727 102.619 215.053 102.339 214.351 102.339ZM100.215 27.9073L95.8182 1.32263H121.323L116.842 27.9073H100.215ZM108.5 54.8742L113.728 57.7903C112.291 59.0836 110.429 59.7987 108.5 59.7987C106.571 59.7987 104.709 59.0836 103.272 57.7903L108.5 54.8742ZM98.4673 60.4657C99.7041 61.9255 101.242 63.098 102.974 63.902C104.706 64.7061 106.592 65.1225 108.5 65.1225C110.408 65.1225 112.294 64.7061 114.026 63.902C115.758 63.098 117.296 61.9255 118.533 60.4657L193.553 102.339H23.4473L98.4673 60.4657ZM211.702 208.677H5.29818V107.661H211.702V208.677Z" fill="#E3E3E3"/>
<path d="M13.2314 203.369H23.8136C24.5162 203.369 25.19 203.089 25.6868 202.589C26.1836 202.09 26.4627 201.413 26.4627 200.708V118.292H34.3959C35.0985 118.292 35.7723 118.012 36.2691 117.513C36.7659 117.014 37.045 116.337 37.045 115.631C37.045 114.925 36.7659 114.248 36.2691 113.749C35.7723 113.25 35.0985 112.97 34.3959 112.97H23.8136C23.4639 112.968 23.1172 113.035 22.7934 113.168C22.4696 113.301 22.175 113.496 21.9263 113.743C21.6777 113.99 21.48 114.284 21.3445 114.608C21.2089 114.932 21.1382 115.28 21.1364 115.631V198.046H13.2314C12.8835 198.046 12.539 198.115 12.2176 198.249C11.8962 198.383 11.6042 198.579 11.3582 198.826C11.1122 199.073 10.9171 199.366 10.7839 199.689C10.6508 200.012 10.5823 200.358 10.5823 200.708C10.5823 201.057 10.6508 201.403 10.7839 201.726C10.9171 202.049 11.1122 202.342 11.3582 202.589C11.6042 202.837 11.8962 203.033 12.2176 203.166C12.539 203.3 12.8835 203.369 13.2314 203.369Z" fill="#E3E3E3"/>
<path d="M31.7609 200.708C31.7609 201.411 32.0381 202.086 32.5318 202.584C33.0256 203.083 33.6958 203.365 34.3959 203.369H44.9923C45.6924 203.365 46.3626 203.083 46.8564 202.584C47.3501 202.086 47.6273 201.411 47.6273 200.708V118.292H55.5745C56.2771 118.292 56.9509 118.012 57.4477 117.513C57.9445 117.014 58.2236 116.337 58.2236 115.631C58.2236 114.925 57.9445 114.248 57.4477 113.749C56.9509 113.25 56.2771 112.97 55.5745 112.97H44.9923C44.2897 112.97 43.6159 113.25 43.1191 113.749C42.6223 114.248 42.3432 114.925 42.3432 115.631V198.046H34.3959C33.6958 198.05 33.0256 198.332 32.5318 198.831C32.0381 199.329 31.7609 200.004 31.7609 200.708Z" fill="#E3E3E3"/>
<path d="M52.9255 200.708C52.9255 201.413 53.2046 202.09 53.7014 202.589C54.1982 203.089 54.872 203.369 55.5745 203.369H66.2273C66.9299 203.369 67.6037 203.089 68.1005 202.589C68.5973 202.09 68.8764 201.413 68.8764 200.708V118.292H76.8095C77.5121 118.292 78.1859 118.012 78.6827 117.513C79.1795 117.014 79.4586 116.337 79.4586 115.631C79.4586 114.925 79.1795 114.248 78.6827 113.749C78.1859 113.25 77.5121 112.97 76.8095 112.97H66.2273C65.5258 112.973 64.8542 113.255 64.3582 113.753C63.8622 114.252 63.5819 114.926 63.5782 115.631V198.046H55.5745C55.2267 198.046 54.8822 198.115 54.5608 198.249C54.2394 198.383 53.9473 198.579 53.7014 198.826C53.4554 199.073 53.2602 199.366 53.1271 199.689C52.994 200.012 52.9255 200.358 52.9255 200.708Z" fill="#E3E3E3"/>
<path d="M74.1041 200.708C74.1041 201.411 74.3812 202.086 74.875 202.584C75.3688 203.083 76.0389 203.365 76.7391 203.369H87.3636C88.0638 203.365 88.734 203.083 89.2277 202.584C89.7215 202.086 89.9986 201.411 89.9986 200.708V118.292H97.9459C98.6485 118.292 99.3223 118.012 99.8191 117.513C100.316 117.014 100.595 116.337 100.595 115.631C100.595 114.925 100.316 114.248 99.8191 113.749C99.3223 113.25 98.6485 112.97 97.9459 112.97H87.3636C86.661 112.97 85.9872 113.25 85.4904 113.749C84.9936 114.248 84.7145 114.925 84.7145 115.631V198.046H76.7391C76.0389 198.05 75.3688 198.332 74.875 198.831C74.3812 199.329 74.1041 200.004 74.1041 200.708Z" fill="#E3E3E3"/>
<path d="M95.2686 200.708C95.2686 201.413 95.5477 202.09 96.0445 202.589C96.5413 203.089 97.2151 203.369 97.9177 203.369H108.5C109.201 203.365 109.873 203.084 110.369 202.585C110.865 202.087 111.145 201.412 111.149 200.708V118.292H119.082C119.785 118.292 120.459 118.012 120.955 117.513C121.452 117.014 121.731 116.337 121.731 115.631C121.731 114.925 121.452 114.248 120.955 113.749C120.459 113.25 119.785 112.97 119.082 112.97H108.5C107.799 112.973 107.127 113.255 106.631 113.753C106.135 114.252 105.855 114.926 105.851 115.631V198.046H97.9177C97.5698 198.046 97.2254 198.115 96.904 198.249C96.5826 198.383 96.2905 198.579 96.0445 198.826C95.7985 199.073 95.6034 199.366 95.4703 199.689C95.3372 200.012 95.2686 200.358 95.2686 200.708Z" fill="#E3E3E3"/>
<path d="M116.433 200.708C116.437 201.412 116.717 202.087 117.213 202.585C117.709 203.084 118.381 203.365 119.082 203.369H129.636C130.339 203.369 131.013 203.089 131.51 202.589C132.006 202.09 132.285 201.413 132.285 200.708V118.292H140.233C140.935 118.292 141.609 118.012 142.106 117.513C142.603 117.014 142.882 116.337 142.882 115.631C142.882 114.925 142.603 114.248 142.106 113.749C141.609 113.25 140.935 112.97 140.233 112.97H129.636C128.936 112.973 128.266 113.255 127.772 113.754C127.279 114.253 127.001 114.928 127.001 115.631V198.046H119.082C118.381 198.05 117.709 198.332 117.213 198.83C116.717 199.328 116.437 200.003 116.433 200.708Z" fill="#E3E3E3"/>
<path d="M137.612 200.708C137.612 201.413 137.891 202.09 138.388 202.589C138.885 203.089 139.558 203.369 140.261 203.369H150.843C151.545 203.365 152.216 203.084 152.712 202.585C153.208 202.087 153.489 201.412 153.492 200.708V118.292H161.425C162.128 118.292 162.802 118.012 163.299 117.513C163.795 117.014 164.075 116.337 164.075 115.631C164.075 114.925 163.795 114.248 163.299 113.749C162.802 113.25 162.128 112.97 161.425 112.97H150.843C150.141 112.97 149.467 113.25 148.97 113.749C148.473 114.248 148.194 114.925 148.194 115.631V198.046H140.261C139.913 198.046 139.569 198.115 139.247 198.249C138.926 198.383 138.634 198.579 138.388 198.826C138.142 199.073 137.947 199.366 137.813 199.689C137.68 200.012 137.612 200.358 137.612 200.708Z" fill="#E3E3E3"/>
<path d="M158.776 200.708C158.78 201.412 159.06 202.087 159.556 202.585C160.052 203.084 160.724 203.365 161.425 203.369H172.008C172.71 203.369 173.384 203.089 173.881 202.589C174.378 202.09 174.657 201.413 174.657 200.708V118.292H182.604C183.307 118.292 183.98 118.012 184.477 117.513C184.974 117.014 185.253 116.337 185.253 115.631C185.253 114.925 184.974 114.248 184.477 113.749C183.98 113.25 183.307 112.97 182.604 112.97H172.008C171.308 112.973 170.637 113.255 170.144 113.754C169.65 114.253 169.373 114.928 169.373 115.631V198.046H161.425C160.724 198.05 160.052 198.332 159.556 198.83C159.06 199.328 158.78 200.003 158.776 200.708Z" fill="#E3E3E3"/>
<path d="M179.955 200.708C179.955 201.413 180.234 202.09 180.731 202.589C181.228 203.089 181.902 203.369 182.604 203.369H193.186C193.888 203.365 194.559 203.084 195.055 202.585C195.551 202.087 195.832 201.412 195.835 200.708V118.292H203.769C204.471 118.292 205.145 118.012 205.642 117.513C206.139 117.014 206.418 116.337 206.418 115.631C206.418 114.925 206.139 114.248 205.642 113.749C205.145 113.25 204.471 112.97 203.769 112.97H193.186C192.484 112.97 191.81 113.25 191.313 113.749C190.816 114.248 190.537 114.925 190.537 115.631V198.046H182.604C182.256 198.046 181.912 198.115 181.59 198.249C181.269 198.383 180.977 198.579 180.731 198.826C180.485 199.073 180.29 199.366 180.157 199.689C180.024 200.012 179.955 200.358 179.955 200.708Z" fill="#E3E3E3"/>
</svg>
