<svg width="98" height="19" viewBox="0 0 98 19" fill="none" xmlns="http://www.w3.org/2000/svg">
<path d="M0.476947 17.1477C0.00623465 17.4366 -0.141174 18.0523 0.1477 18.5231C0.436574 18.9938 1.05234 19.1412 1.52305 18.8523L0.476947 17.1477ZM97.1711 13.1209C97.7152 13.0264 98.0798 12.5087 97.9853 11.9646L96.4453 3.09729C96.3508 2.55315 95.8331 2.18864 95.289 2.28314C94.7448 2.37764 94.3803 2.89536 94.4748 3.4395L95.8436 11.3215L87.9616 12.6904C87.4175 12.7849 87.053 13.3026 87.1475 13.8467C87.242 14.3908 87.7597 14.7554 88.3038 14.6609L97.1711 13.1209ZM1.52305 18.8523C10.7198 13.2083 26.5465 6.12668 44.0511 3.27548C61.5562 0.424198 80.6124 1.82075 96.4243 12.9533L97.5757 11.318C81.1811 -0.224815 61.5277 -1.59753 43.7296 1.30149C25.9309 4.20059 9.86081 11.3889 0.476947 17.1477L1.52305 18.8523Z" fill="currentcolor"/>
</svg>
