<svg width="98" height="19" viewBox="0 0 98 19" fill="none" xmlns="http://www.w3.org/2000/svg">
<path d="M0.476946 1.8523C0.00623321 1.56343 -0.141176 0.947661 0.147698 0.476948C0.436572 0.00623517 1.05234 -0.141174 1.52305 0.147699L0.476946 1.8523ZM97.1711 5.87907C97.7152 5.97357 98.0797 6.49128 97.9853 7.03542L96.4453 15.9027C96.3508 16.4468 95.8331 16.8113 95.289 16.7169C94.7448 16.6224 94.3803 16.1046 94.4748 15.5605L95.8436 7.67847L87.9616 6.30964C87.4175 6.21514 87.053 5.69742 87.1475 5.15328C87.242 4.60914 87.7597 4.24464 88.3038 4.33913L97.1711 5.87907ZM1.52305 0.147699C10.7198 5.79173 26.5465 12.8733 44.0511 15.7245C61.5562 18.5758 80.6124 17.1792 96.4243 6.04665L97.5757 7.68199C81.1811 19.2248 61.5277 20.5975 43.7296 17.6985C25.9309 14.7994 9.86081 7.61113 0.476946 1.8523L1.52305 0.147699Z" fill="currentcolor"/>
</svg>
