<svg width="217" height="206" viewBox="0 0 217 206" fill="none" xmlns="http://www.w3.org/2000/svg">
<path d="M214.351 94.3387H204.487L121.182 47.8368C121.595 46.5421 121.805 45.1904 121.802 43.8307C121.802 43.1249 121.523 42.4479 121.026 41.9488C120.529 41.4498 119.855 41.1694 119.153 41.1694C118.45 41.1694 117.776 41.4498 117.28 41.9488C116.783 42.4479 116.504 43.1249 116.504 43.8307C116.497 44.2722 116.455 44.7125 116.377 45.1472L109.782 41.5091C109.389 41.2935 108.948 41.1806 108.5 41.1806C108.052 41.1806 107.611 41.2935 107.218 41.5091L100.694 45.1472C100.616 44.7125 100.573 44.2722 100.567 43.8307C100.571 41.7168 101.407 39.6904 102.894 38.1943C104.38 36.6983 106.396 35.8543 108.5 35.8468C109.2 35.8468 109.872 35.5683 110.368 35.0723C110.865 34.5763 111.145 33.903 111.149 33.1996V25.2157H119.082C119.71 25.2148 120.317 24.9914 120.796 24.5848C121.276 24.1782 121.597 23.6145 121.703 22.9933L126.987 -8.89983C127.052 -9.28014 127.032 -9.66999 126.93 -10.0418C126.827 -10.4136 126.645 -10.7583 126.395 -11.0515C126.151 -11.35 125.843 -11.5899 125.494 -11.7539C125.146 -11.918 124.765 -12.002 124.38 -12H92.6195C92.2347 -12.002 91.8541 -11.918 91.5056 -11.7539C91.1571 -11.5899 90.8493 -11.35 90.6045 -11.0515C90.355 -10.7583 90.1727 -10.4136 90.0704 -10.0418C89.9681 -9.66999 89.9485 -9.28014 90.0127 -8.89983L95.2968 22.9933C95.4031 23.6145 95.7242 24.1782 96.2037 24.5848C96.6832 24.9914 97.2902 25.2148 97.9177 25.2157H105.851V30.8073C102.866 31.4255 100.184 33.0581 98.2564 35.4301C96.329 37.8021 95.2739 40.7687 95.2686 43.8307C95.2659 45.1904 95.4751 46.5421 95.8886 47.8368L12.5409 94.3387H2.67727C2.32702 94.335 1.97952 94.401 1.65485 94.5331C1.33019 94.6652 1.03482 94.8606 0.785838 95.1081C0.536854 95.3556 0.3392 95.6502 0.204312 95.975C0.0694235 96.2997 -1.98168e-05 96.6481 4.24197e-09 97V203.339C4.24197e-09 204.045 0.2791 204.721 0.775901 205.221C1.2727 205.72 1.94651 206 2.64909 206H214.351C215.053 206 215.727 205.72 216.224 205.221C216.721 204.721 217 204.045 217 203.339V97C217 96.2942 216.721 95.6173 216.224 95.1182C215.727 94.6191 215.053 94.3387 214.351 94.3387ZM100.215 19.9073L95.8182 -6.67737H121.323L116.842 19.9073H100.215ZM108.5 46.8742L113.728 49.7903C112.291 51.0836 110.429 51.7987 108.5 51.7987C106.571 51.7987 104.709 51.0836 103.272 49.7903L108.5 46.8742ZM98.4673 52.4657C99.7041 53.9255 101.242 55.098 102.974 55.902C104.706 56.7061 106.592 57.1225 108.5 57.1225C110.408 57.1225 112.294 56.7061 114.026 55.902C115.758 55.098 117.296 53.9255 118.533 52.4657L193.553 94.3387H23.4473L98.4673 52.4657ZM211.702 200.677H5.29818V99.6613H211.702V200.677Z" fill="#2F2F2F"/>
<path d="M13.2314 195.369H23.8136C24.5162 195.369 25.19 195.089 25.6868 194.589C26.1836 194.09 26.4627 193.413 26.4627 192.708V110.292H34.3959C35.0985 110.292 35.7723 110.012 36.2691 109.513C36.7659 109.014 37.045 108.337 37.045 107.631C37.045 106.925 36.7659 106.248 36.2691 105.749C35.7723 105.25 35.0985 104.97 34.3959 104.97H23.8136C23.4639 104.968 23.1172 105.035 22.7934 105.168C22.4696 105.301 22.175 105.496 21.9263 105.743C21.6777 105.99 21.48 106.284 21.3445 106.608C21.2089 106.932 21.1382 107.28 21.1364 107.631V190.046H13.2314C12.8835 190.046 12.539 190.115 12.2176 190.249C11.8962 190.383 11.6042 190.579 11.3582 190.826C11.1122 191.073 10.9171 191.366 10.7839 191.689C10.6508 192.012 10.5823 192.358 10.5823 192.708C10.5823 193.057 10.6508 193.403 10.7839 193.726C10.9171 194.049 11.1122 194.342 11.3582 194.589C11.6042 194.837 11.8962 195.033 12.2176 195.166C12.539 195.3 12.8835 195.369 13.2314 195.369Z" fill="#2F2F2F"/>
<path d="M31.7609 192.708C31.7609 193.411 32.0381 194.086 32.5318 194.584C33.0256 195.083 33.6958 195.365 34.3959 195.369H44.9923C45.6924 195.365 46.3626 195.083 46.8564 194.584C47.3501 194.086 47.6273 193.411 47.6273 192.708V110.292H55.5745C56.2771 110.292 56.9509 110.012 57.4477 109.513C57.9445 109.014 58.2236 108.337 58.2236 107.631C58.2236 106.925 57.9445 106.248 57.4477 105.749C56.9509 105.25 56.2771 104.97 55.5745 104.97H44.9923C44.2897 104.97 43.6159 105.25 43.1191 105.749C42.6223 106.248 42.3432 106.925 42.3432 107.631V190.046H34.3959C33.6958 190.05 33.0256 190.332 32.5318 190.831C32.0381 191.329 31.7609 192.004 31.7609 192.708Z" fill="#2F2F2F"/>
<path d="M52.9255 192.708C52.9255 193.413 53.2046 194.09 53.7014 194.589C54.1982 195.089 54.872 195.369 55.5745 195.369H66.2273C66.9299 195.369 67.6037 195.089 68.1005 194.589C68.5973 194.09 68.8764 193.413 68.8764 192.708V110.292H76.8095C77.5121 110.292 78.1859 110.012 78.6827 109.513C79.1795 109.014 79.4586 108.337 79.4586 107.631C79.4586 106.925 79.1795 106.248 78.6827 105.749C78.1859 105.25 77.5121 104.97 76.8095 104.97H66.2273C65.5258 104.973 64.8542 105.255 64.3582 105.753C63.8622 106.252 63.5819 106.926 63.5782 107.631V190.046H55.5745C55.2267 190.046 54.8822 190.115 54.5608 190.249C54.2394 190.383 53.9473 190.579 53.7014 190.826C53.4554 191.073 53.2602 191.366 53.1271 191.689C52.994 192.012 52.9255 192.358 52.9255 192.708Z" fill="#2F2F2F"/>
<path d="M74.1041 192.708C74.1041 193.411 74.3812 194.086 74.875 194.584C75.3688 195.083 76.0389 195.365 76.7391 195.369H87.3636C88.0638 195.365 88.734 195.083 89.2277 194.584C89.7215 194.086 89.9986 193.411 89.9986 192.708V110.292H97.9459C98.6485 110.292 99.3223 110.012 99.8191 109.513C100.316 109.014 100.595 108.337 100.595 107.631C100.595 106.925 100.316 106.248 99.8191 105.749C99.3223 105.25 98.6485 104.97 97.9459 104.97H87.3636C86.661 104.97 85.9872 105.25 85.4904 105.749C84.9936 106.248 84.7145 106.925 84.7145 107.631V190.046H76.7391C76.0389 190.05 75.3688 190.332 74.875 190.831C74.3812 191.329 74.1041 192.004 74.1041 192.708Z" fill="#2F2F2F"/>
<path d="M95.2686 192.708C95.2686 193.413 95.5477 194.09 96.0445 194.589C96.5413 195.089 97.2151 195.369 97.9177 195.369H108.5C109.201 195.365 109.873 195.084 110.369 194.585C110.865 194.087 111.145 193.412 111.149 192.708V110.292H119.082C119.785 110.292 120.459 110.012 120.955 109.513C121.452 109.014 121.731 108.337 121.731 107.631C121.731 106.925 121.452 106.248 120.955 105.749C120.459 105.25 119.785 104.97 119.082 104.97H108.5C107.799 104.973 107.127 105.255 106.631 105.753C106.135 106.252 105.855 106.926 105.851 107.631V190.046H97.9177C97.5698 190.046 97.2254 190.115 96.904 190.249C96.5826 190.383 96.2905 190.579 96.0445 190.826C95.7985 191.073 95.6034 191.366 95.4703 191.689C95.3372 192.012 95.2686 192.358 95.2686 192.708Z" fill="#2F2F2F"/>
<path d="M116.433 192.708C116.437 193.412 116.717 194.087 117.213 194.585C117.709 195.084 118.381 195.365 119.082 195.369H129.636C130.339 195.369 131.013 195.089 131.51 194.589C132.006 194.09 132.285 193.413 132.285 192.708V110.292H140.233C140.935 110.292 141.609 110.012 142.106 109.513C142.603 109.014 142.882 108.337 142.882 107.631C142.882 106.925 142.603 106.248 142.106 105.749C141.609 105.25 140.935 104.97 140.233 104.97H129.636C128.936 104.973 128.266 105.255 127.772 105.754C127.279 106.253 127.001 106.928 127.001 107.631V190.046H119.082C118.381 190.05 117.709 190.332 117.213 190.83C116.717 191.328 116.437 192.003 116.433 192.708Z" fill="#2F2F2F"/>
<path d="M137.612 192.708C137.612 193.413 137.891 194.09 138.388 194.589C138.885 195.089 139.558 195.369 140.261 195.369H150.843C151.545 195.365 152.216 195.084 152.712 194.585C153.208 194.087 153.489 193.412 153.492 192.708V110.292H161.425C162.128 110.292 162.802 110.012 163.299 109.513C163.795 109.014 164.075 108.337 164.075 107.631C164.075 106.925 163.795 106.248 163.299 105.749C162.802 105.25 162.128 104.97 161.425 104.97H150.843C150.141 104.97 149.467 105.25 148.97 105.749C148.473 106.248 148.194 106.925 148.194 107.631V190.046H140.261C139.913 190.046 139.569 190.115 139.247 190.249C138.926 190.383 138.634 190.579 138.388 190.826C138.142 191.073 137.947 191.366 137.813 191.689C137.68 192.012 137.612 192.358 137.612 192.708Z" fill="#2F2F2F"/>
<path d="M158.776 192.708C158.78 193.412 159.06 194.087 159.556 194.585C160.052 195.084 160.724 195.365 161.425 195.369H172.008C172.71 195.369 173.384 195.089 173.881 194.589C174.378 194.09 174.657 193.413 174.657 192.708V110.292H182.604C183.307 110.292 183.98 110.012 184.477 109.513C184.974 109.014 185.253 108.337 185.253 107.631C185.253 106.925 184.974 106.248 184.477 105.749C183.98 105.25 183.307 104.97 182.604 104.97H172.008C171.308 104.973 170.637 105.255 170.144 105.754C169.65 106.253 169.373 106.928 169.373 107.631V190.046H161.425C160.724 190.05 160.052 190.332 159.556 190.83C159.06 191.328 158.78 192.003 158.776 192.708Z" fill="#2F2F2F"/>
<path d="M179.955 192.708C179.955 193.413 180.234 194.09 180.731 194.589C181.228 195.089 181.902 195.369 182.604 195.369H193.186C193.888 195.365 194.559 195.084 195.055 194.585C195.551 194.087 195.832 193.412 195.835 192.708V110.292H203.769C204.471 110.292 205.145 110.012 205.642 109.513C206.139 109.014 206.418 108.337 206.418 107.631C206.418 106.925 206.139 106.248 205.642 105.749C205.145 105.25 204.471 104.97 203.769 104.97H193.186C192.484 104.97 191.81 105.25 191.313 105.749C190.816 106.248 190.537 106.925 190.537 107.631V190.046H182.604C182.256 190.046 181.912 190.115 181.59 190.249C181.269 190.383 180.977 190.579 180.731 190.826C180.485 191.073 180.29 191.366 180.157 191.689C180.024 192.012 179.955 192.358 179.955 192.708Z" fill="#2F2F2F"/>
</svg>
