<svg width="18" height="21" viewBox="0 0 18 21" fill="none" xmlns="http://www.w3.org/2000/svg">
<path d="M1 3.71416V17.2791V3.71416Z" fill="currentcolor"/>
<path d="M17 7.78559V17.2856V7.78559Z" fill="currentcolor"/>
<path d="M3.66666 0.999878H10.3333H3.66666Z" fill="currentcolor"/>
<path d="M3.66666 19.9999H14.3333H3.66666Z" fill="currentcolor"/>
<path d="M17 17.2856C17.0073 18.6412 15.6666 19.9999 14.3333 19.9999L17 17.2856Z" fill="currentcolor"/>
<path d="M1 17.2856C1 18.6427 2.33333 19.9999 3.66666 19.9999L1 17.2856Z" fill="currentcolor"/>
<path d="M1 3.71219C1 2.35702 2.33333 1.0301 3.66666 0.999878L1 3.71219Z" fill="currentcolor"/>
<path d="M16.9927 7.79168L10.3333 0.999878L16.9927 7.79168Z" fill="currentcolor"/>
<path d="M10.3333 5.07131C10.3374 6.42106 11.672 7.78559 13 7.78559L10.3333 5.07131Z" fill="currentcolor"/>
<path d="M10.3333 5.07131V0.999878V5.07131Z" fill="currentcolor"/>
<path d="M13 7.78559H17H13Z" fill="currentcolor"/>
<path d="M3.66666 17.2856H7.66665H3.66666Z" fill="currentcolor"/>
<path d="M3.66666 14.5713H10.3333H3.66666Z" fill="currentcolor"/>
<path d="M3.66666 11.857H7.66665H3.66666Z" fill="currentcolor"/>
<path d="M1.5 3.71416C1.5 3.43802 1.27614 3.21416 1 3.21416C0.723858 3.21416 0.5 3.43802 0.5 3.71416H1.5ZM0.5 17.2791C0.5 17.5553 0.723858 17.7791 1 17.7791C1.27614 17.7791 1.5 17.5553 1.5 17.2791H0.5ZM17 7.78559H17.5C17.5 7.50945 17.2761 7.28559 17 7.28559V7.78559ZM17 17.2856H16.5L16.5 17.2883L17 17.2856ZM3.66666 0.999878V0.499749L3.65533 0.500006L3.66666 0.999878ZM10.3333 0.999878L10.6903 0.649822C10.5963 0.553917 10.4676 0.499878 10.3333 0.499878V0.999878ZM1.5 17.2856C1.5 17.0094 1.27614 16.7856 1 16.7856C0.723858 16.7856 0.5 17.0094 0.5 17.2856H1.5ZM0.5 3.71219C0.5 3.98834 0.723858 4.21219 1 4.21219C1.27614 4.21219 1.5 3.98834 1.5 3.71219H0.5ZM16.6357 8.14174C16.829 8.33891 17.1456 8.34203 17.3427 8.1487C17.5399 7.95537 17.543 7.6388 17.3497 7.44162L16.6357 8.14174ZM10.3333 5.07131H9.83331L9.83332 5.07282L10.3333 5.07131ZM13 7.78559V8.28559V7.78559ZM3.66666 16.7856C3.39052 16.7856 3.16666 17.0094 3.16666 17.2856C3.16666 17.5617 3.39052 17.7856 3.66666 17.7856V16.7856ZM7.66665 17.7856C7.9428 17.7856 8.16665 17.5617 8.16665 17.2856C8.16665 17.0094 7.9428 16.7856 7.66665 16.7856V17.7856ZM3.66666 14.0713C3.39052 14.0713 3.16666 14.2952 3.16666 14.5713C3.16666 14.8474 3.39052 15.0713 3.66666 15.0713V14.0713ZM10.3333 15.0713C10.6095 15.0713 10.8333 14.8474 10.8333 14.5713C10.8333 14.2952 10.6095 14.0713 10.3333 14.0713V15.0713ZM3.66666 11.357C3.39052 11.357 3.16666 11.5809 3.16666 11.857C3.16666 12.1332 3.39052 12.357 3.66666 12.357V11.357ZM7.66665 12.357C7.9428 12.357 8.16665 12.1332 8.16665 11.857C8.16665 11.5809 7.9428 11.357 7.66665 11.357V12.357ZM0.5 3.71416V17.2791H1.5V3.71416H0.5ZM16.5 7.78559V17.2856H17.5V7.78559H16.5ZM3.66666 1.49988H10.3333V0.499878H3.66666V1.49988ZM3.66666 20.4999H14.3333V19.4999H3.66666V20.4999ZM16.5 17.2883C16.5028 17.8045 16.2441 18.3622 15.813 18.8004C15.3813 19.2392 14.8344 19.4999 14.3333 19.4999V20.4999C15.1656 20.4999 15.9556 20.0812 16.5258 19.5017C17.0964 18.9218 17.5045 18.1223 17.5 17.2829L16.5 17.2883ZM0.5 17.2856C0.5 18.1237 0.906869 18.9221 1.47666 19.5021C2.04591 20.0815 2.83423 20.4999 3.66666 20.4999V19.4999C3.16577 19.4999 2.62075 19.2397 2.19 18.8013C1.7598 18.3634 1.5 17.8047 1.5 17.2856H0.5ZM1.5 3.71219C1.5 3.1956 1.7585 2.64533 2.18861 2.211C2.61902 1.77636 3.16853 1.5113 3.67799 1.49975L3.65533 0.500006C2.83147 0.518681 2.04764 0.932187 1.47806 1.50736C0.908169 2.08284 0.5 2.87361 0.5 3.71219H1.5ZM17.3497 7.44162L10.6903 0.649822L9.9763 1.34993L16.6357 8.14174L17.3497 7.44162ZM9.83332 5.07282C9.83585 5.90708 10.2443 6.70475 10.8133 7.28475C11.3817 7.86418 12.1689 8.28559 13 8.28559V7.28559C12.5031 7.28559 11.959 7.02474 11.5271 6.58446C11.0958 6.14476 10.8349 5.58529 10.8333 5.06979L9.83332 5.07282ZM10.8333 5.07131V0.999878H9.83332V5.07131H10.8333ZM13 8.28559H17V7.28559H13V8.28559ZM3.66666 17.7856H7.66665V16.7856H3.66666V17.7856ZM3.66666 15.0713H10.3333V14.0713H3.66666V15.0713ZM3.66666 12.357H7.66665V11.357H3.66666V12.357Z" fill="currentcolor"/>
</svg>
