<svg width="17" height="21" viewBox="0 0 17 21" fill="none" xmlns="http://www.w3.org/2000/svg">
<path d="M15.2812 5.90613V5.80073L15.5938 6.11323V18.3749C15.5938 18.9385 15.3699 19.479 14.9714 19.8775C14.5728 20.276 14.0323 20.4999 13.4688 20.4999H2.96875C2.40516 20.4999 1.86466 20.276 1.46615 19.8775C1.06763 19.479 0.84375 18.9385 0.84375 18.3749V2.62488C0.84375 2.06129 1.06763 1.52079 1.46615 1.12228C1.86466 0.723761 2.40516 0.499878 2.96875 0.499878H9.98039L10.2929 0.812378H10.1875H2.96875C2.48805 0.812378 2.02703 1.00334 1.68712 1.34325C1.34721 1.68316 1.15625 2.14417 1.15625 2.62488V18.3749C1.15625 18.8556 1.34721 19.3166 1.68712 19.6565C2.02703 19.9964 2.48805 20.1874 2.96875 20.1874H13.4688C13.9495 20.1874 14.4105 19.9964 14.7504 19.6565C15.0903 19.3166 15.2812 18.8556 15.2812 18.3749V5.90613ZM10.6875 1.20699L14.8866 5.40613H14.7812H12.1562C11.7667 5.40613 11.3931 5.25139 11.1177 4.97594C10.8422 4.7005 10.6875 4.32691 10.6875 3.93738V1.31238V1.20699ZM6.93479 14.9568L6.85539 14.9803L6.97674 14.8001L6.84726 14.8594L6.8497 14.855C6.97749 14.6253 7.10181 14.3937 7.22263 14.1603V14.2471V14.2484V14.8745C7.12644 14.901 7.03049 14.9284 6.93479 14.9568ZM8.33491 11.7323L8.26002 11.9016C8.26353 11.8929 8.26703 11.8842 8.27053 11.8755L8.3402 11.7023L8.42076 11.8745C8.44344 11.9231 8.46639 11.9714 8.48959 12.0197L8.33491 11.7323ZM8.40611 11.4856L8.3401 11.6599L8.26427 11.4876C8.15611 11.2418 8.05901 10.9915 7.97322 10.7374H8.32113H8.32244H8.67166C8.59204 10.9791 8.50317 11.2294 8.40611 11.4856ZM10.1993 14.3741C10.2772 14.3679 10.3551 14.3631 10.433 14.3595V14.839V14.8403V15.0117C10.3157 14.8792 10.2034 14.7423 10.0963 14.6011L9.93961 14.3946L10.1993 14.3741ZM9.80993 14.2466L9.9021 14.3769L9.79303 14.3893L9.89336 14.3743L9.80993 14.2466Z" fill="currentcolor" stroke="currentcolor"/>
</svg>
