<svg width="18" height="18" viewBox="0 0 18 18" fill="none" xmlns="http://www.w3.org/2000/svg">
<g clip-path="url(#clip0_635_1086)">
<path d="M14.6859 11.5786C14.1898 11.5811 13.7005 11.6914 13.2542 11.9014C12.808 12.1115 12.4161 12.4159 12.1075 12.7923L7.26228 9.85772C7.43887 9.30559 7.43887 8.71461 7.26228 8.16248L12.1075 5.22792C12.5993 5.81786 13.2907 6.22013 14.0593 6.36348C14.828 6.50682 15.6241 6.38199 16.3068 6.01108C16.9895 5.64018 17.5147 5.04715 17.7893 4.33705C18.0639 3.62695 18.0702 2.84561 17.8071 2.13143C17.544 1.41726 17.0284 0.816356 16.3518 0.435165C15.6752 0.0539748 14.8811 -0.0828971 14.1103 0.048796C13.3394 0.180489 12.6416 0.572247 12.1404 1.15467C11.6391 1.7371 11.3669 2.47259 11.3718 3.23088C11.3749 3.51803 11.4195 3.80334 11.5043 4.0785L6.65912 7.01306C6.23136 6.49137 5.64668 6.11153 4.98612 5.92617C4.32556 5.74082 3.62184 5.75914 2.97251 5.97858C2.32317 6.19803 1.76039 6.60774 1.36216 7.15093C0.96394 7.69411 0.75 8.34385 0.75 9.0101C0.75 9.67635 0.96394 10.3261 1.36216 10.8693C1.76039 11.4125 2.32317 11.8222 2.97251 12.0416C3.62184 12.2611 4.32556 12.2794 4.98612 12.094C5.64668 11.9087 6.23136 11.5288 6.65912 11.0071L11.5043 13.9417C11.4195 14.2169 11.3749 14.5022 11.3718 14.7893C11.3718 15.4243 11.5661 16.0451 11.9303 16.5731C12.2945 17.1011 12.8121 17.5126 13.4176 17.7556C14.0232 17.9986 14.6896 18.0622 15.3324 17.9383C15.9753 17.8144 16.5658 17.5086 17.0293 17.0596C17.4928 16.6106 17.8084 16.0385 17.9363 15.4157C18.0642 14.7929 17.9986 14.1473 17.7477 13.5606C17.4969 12.974 17.0721 12.4725 16.5271 12.1197C15.9821 11.7669 15.3414 11.5786 14.6859 11.5786ZM14.6859 1.30447C15.0792 1.30447 15.4636 1.41745 15.7906 1.62913C16.1176 1.8408 16.3725 2.14167 16.523 2.49367C16.6735 2.84568 16.7129 3.23301 16.6361 3.6067C16.5594 3.98039 16.37 4.32364 16.0919 4.59305C15.8139 4.86247 15.4595 5.04594 15.0738 5.12027C14.6881 5.1946 14.2883 5.15645 13.9249 5.01065C13.5616 4.86484 13.251 4.61793 13.0325 4.30113C12.814 3.98434 12.6974 3.61188 12.6974 3.23088C12.6974 2.71996 12.9069 2.22997 13.2798 1.8687C13.6527 1.50743 14.1585 1.30447 14.6859 1.30447ZM4.08074 10.9365C3.68746 10.9365 3.30301 10.8235 2.97601 10.6118C2.649 10.4002 2.39414 10.0993 2.24363 9.7473C2.09313 9.3953 2.05375 9.00796 2.13048 8.63428C2.20721 8.26059 2.39659 7.91734 2.67468 7.64792C2.95277 7.37851 3.30708 7.19504 3.69281 7.12071C4.07853 7.04638 4.47835 7.08453 4.84169 7.23033C5.20504 7.37614 5.51559 7.62305 5.73409 7.93984C5.95258 8.25664 6.0692 8.62909 6.0692 9.0101C6.0692 9.52101 5.85971 10.011 5.4868 10.3723C5.11389 10.7335 4.60811 10.9365 4.08074 10.9365ZM14.6859 16.7157C14.2926 16.7157 13.9082 16.6027 13.5812 16.3911C13.2542 16.1794 12.9993 15.8785 12.8488 15.5265C12.6983 15.1745 12.6589 14.7872 12.7356 14.4135C12.8124 14.0398 13.0017 13.6966 13.2798 13.4271C13.5579 13.1577 13.9122 12.9743 14.298 12.8999C14.6837 12.8256 15.0835 12.8637 15.4468 13.0096C15.8102 13.1554 16.1207 13.4023 16.3392 13.7191C16.5577 14.0359 16.6744 14.4083 16.6744 14.7893C16.6744 15.3002 16.4649 15.7902 16.0919 16.1515C15.719 16.5128 15.2133 16.7157 14.6859 16.7157Z" fill="currentcolor"/>
</g>
<defs>
<clipPath id="clip0_635_1086">
<rect width="18" height="18" fill="white"/>
</clipPath>
</defs>
</svg>
